<svg width="197" height="31" fill="none" xmlns="http://www.w3.org/2000/svg"><path d="M9.593 24.33c-2.046 0-3.762-.297-5.148-.891-1.364-.616-2.409-1.408-3.135-2.376-.704-.99-1.078-2.024-1.122-3.102 0-.198.066-.363.198-.495a.672.672 0 01.495-.198h2.937c.286 0 .495.066.627.198.154.11.286.253.396.429.132.418.385.836.759 1.254.374.396.88.726 1.518.99.66.264 1.485.396 2.475.396 1.584 0 2.761-.264 3.531-.792.792-.528 1.188-1.243 1.188-2.145 0-.638-.209-1.144-.627-1.518-.418-.396-1.067-.748-1.947-1.056-.858-.33-2.002-.671-3.432-1.023-1.65-.396-3.036-.869-4.158-1.419-1.1-.572-1.936-1.287-2.508-2.145C1.09 9.579.815 8.49.815 7.17c0-1.276.341-2.409 1.023-3.399.704-.99 1.694-1.771 2.97-2.343C6.106.856 7.646.57 9.428.57c1.43 0 2.695.198 3.795.594 1.1.374 2.013.88 2.739 1.518.726.616 1.276 1.287 1.65 2.013.396.704.605 1.397.627 2.079a.748.748 0 01-.198.495c-.11.132-.275.198-.495.198h-3.069c-.176 0-.352-.044-.528-.132-.176-.088-.319-.253-.429-.495-.132-.682-.561-1.265-1.287-1.749-.726-.484-1.661-.726-2.805-.726-1.188 0-2.145.22-2.871.66-.726.44-1.089 1.122-1.089 2.046 0 .616.176 1.133.528 1.551.374.396.957.748 1.749 1.056.814.308 1.881.638 3.201.99 1.87.418 3.399.902 4.587 1.452 1.188.55 2.057 1.254 2.607 2.112.55.836.825 1.903.825 3.201 0 1.452-.396 2.695-1.188 3.729-.77 1.012-1.859 1.793-3.267 2.343s-3.047.825-4.917.825zM24.562 24a.764.764 0 01-.561-.231.764.764 0 01-.231-.561V7.632c0-.22.077-.407.23-.561a.764.764 0 01.562-.231H27.3c.242 0 .429.077.56.231a.764.764 0 01.232.561v15.576c0 .22-.077.407-.231.561-.132.154-.32.231-.561.231h-2.74zM24.43 4.002a.88.88 0 01-.594-.198.88.88 0 01-.198-.594V.834c0-.22.066-.407.198-.561a.804.804 0 01.594-.231h3.003c.242 0 .44.077.594.231a.764.764 0 01.23.561V3.21c0 .242-.076.44-.23.594a.88.88 0 01-.594.198H24.43zM35.359 24a.764.764 0 01-.561-.231.764.764 0 01-.231-.561V7.632c0-.22.077-.407.23-.561a.764.764 0 01.562-.231h2.574a.76.76 0 01.56.231.764.764 0 01.232.561v1.122c.462-.616 1.078-1.133 1.848-1.551.792-.44 1.727-.671 2.805-.693 2.508-.044 4.257.935 5.247 2.937.506-.88 1.232-1.584 2.178-2.112.968-.55 2.035-.825 3.2-.825 1.145 0 2.179.264 3.103.792.946.528 1.683 1.331 2.21 2.409.55 1.056.826 2.398.826 4.026v9.471c0 .22-.077.407-.231.561a.764.764 0 01-.561.231h-2.706a.764.764 0 01-.561-.231.764.764 0 01-.231-.561v-9.207c0-.99-.143-1.771-.43-2.343-.285-.594-.67-1.012-1.154-1.254a3.565 3.565 0 00-1.617-.363c-.484 0-.968.121-1.452.363s-.88.66-1.188 1.254c-.308.572-.462 1.353-.462 2.343v9.207c0 .22-.077.407-.231.561a.764.764 0 01-.561.231H46.05a.804.804 0 01-.594-.231.833.833 0 01-.198-.561v-9.207c0-.99-.154-1.771-.462-2.343-.308-.594-.704-1.012-1.188-1.254a3.421 3.421 0 00-1.551-.363c-.506 0-1.001.132-1.485.396-.484.242-.88.649-1.188 1.221-.308.572-.462 1.353-.462 2.343v9.207c0 .22-.077.407-.231.561a.764.764 0 01-.561.231h-2.772zm31.23 6.27a.764.764 0 01-.562-.231.764.764 0 01-.23-.561V7.632c0-.22.076-.407.23-.561a.764.764 0 01.561-.231h2.607c.242 0 .43.077.561.231a.764.764 0 01.231.561v1.32c.528-.704 1.221-1.287 2.08-1.749.857-.462 1.924-.693 3.2-.693 1.166 0 2.178.187 3.036.561a5.602 5.602 0 012.145 1.617c.572.682 1.012 1.496 1.32 2.442.308.946.484 1.991.528 3.135a21.413 21.413 0 010 2.343 10.548 10.548 0 01-.495 3.069 7.347 7.347 0 01-1.353 2.442 6.079 6.079 0 01-2.145 1.617c-.858.396-1.87.594-3.036.594-1.188 0-2.2-.209-3.036-.627a6.012 6.012 0 01-2.046-1.716v7.491c0 .22-.077.407-.23.561-.133.154-.32.231-.562.231h-2.805zm7.457-9.471c.946 0 1.683-.198 2.211-.594a3.375 3.375 0 001.122-1.617c.242-.66.385-1.386.43-2.178.043-.66.043-1.32 0-1.98a7.508 7.508 0 00-.43-2.178 3.185 3.185 0 00-1.122-1.584c-.528-.418-1.265-.627-2.21-.627-.903 0-1.64.209-2.212.627-.55.418-.957.957-1.22 1.617a6.783 6.783 0 00-.43 1.98 24.494 24.494 0 000 2.541 4.89 4.89 0 00.462 1.914 3.884 3.884 0 001.254 1.485c.55.396 1.265.594 2.145.594zM88.278 24a.764.764 0 01-.561-.231.764.764 0 01-.231-.561V1.362c0-.22.077-.407.23-.561a.764.764 0 01.562-.231h2.739a.76.76 0 01.56.231.764.764 0 01.232.561v21.846c0 .22-.077.407-.231.561a.764.764 0 01-.561.231h-2.74zm16.719.33c-2.442 0-4.378-.704-5.808-2.112-1.43-1.408-2.2-3.41-2.31-6.006a8.535 8.535 0 01-.033-.825c0-.352.011-.627.033-.825.088-1.65.462-3.08 1.122-4.29.682-1.21 1.617-2.134 2.805-2.772 1.188-.66 2.585-.99 4.191-.99 1.782 0 3.278.374 4.488 1.122 1.21.726 2.123 1.749 2.739 3.069.616 1.298.924 2.805.924 4.521v.693c0 .22-.077.407-.231.561a.804.804 0 01-.594.231h-10.956v.264c.022.77.165 1.485.429 2.145a3.885 3.885 0 001.221 1.551c.55.396 1.199.594 1.947.594.616 0 1.133-.088 1.551-.264a4.107 4.107 0 001.023-.66c.264-.242.451-.44.561-.594.198-.264.352-.418.462-.462.132-.066.319-.099.561-.099h2.838c.22 0 .396.066.528.198a.54.54 0 01.198.495c-.022.352-.209.781-.561 1.287-.33.506-.814 1.001-1.452 1.485-.638.484-1.441.891-2.409 1.221-.946.308-2.035.462-3.267.462zm-3.63-10.395h7.293v-.099c0-.858-.143-1.606-.429-2.244a3.546 3.546 0 00-1.254-1.518c-.55-.374-1.21-.561-1.98-.561s-1.43.187-1.98.561c-.55.374-.968.88-1.254 1.518-.264.638-.396 1.386-.396 2.244v.099z" fill="#FF6838"/><path d="M119.258 24a.764.764 0 01-.561-.231.764.764 0 01-.231-.561V1.725c0-.242.077-.44.231-.594a.764.764 0 01.561-.231h14.322c.242 0 .44.077.594.231a.804.804 0 01.231.594v2.31c0 .242-.077.44-.231.594a.88.88 0 01-.594.198h-10.593v6.27h9.933c.242 0 .44.077.594.231a.804.804 0 01.231.594v2.31c0 .22-.077.407-.231.561a.804.804 0 01-.594.231h-9.933v8.184c0 .22-.077.407-.231.561a.804.804 0 01-.594.231h-2.904zm27.318.33c-1.76 0-3.245-.308-4.455-.924-1.188-.616-2.101-1.485-2.739-2.607-.616-1.122-.968-2.431-1.056-3.927-.022-.396-.033-.88-.033-1.452s.011-1.056.033-1.452c.088-1.518.451-2.827 1.089-3.927.66-1.122 1.584-1.991 2.772-2.607 1.21-.616 2.673-.924 4.389-.924 1.716 0 3.168.308 4.356.924 1.21.616 2.134 1.485 2.772 2.607.66 1.1 1.034 2.409 1.122 3.927.022.396.033.88.033 1.452s-.011 1.056-.033 1.452c-.088 1.496-.451 2.805-1.089 3.927-.616 1.122-1.529 1.991-2.739 2.607-1.188.616-2.662.924-4.422.924zm0-3.267c1.166 0 2.068-.363 2.706-1.089.638-.748.99-1.837 1.056-3.267.022-.33.033-.759.033-1.287 0-.528-.011-.957-.033-1.287-.066-1.408-.418-2.486-1.056-3.234-.638-.748-1.54-1.122-2.706-1.122s-2.068.374-2.706 1.122c-.638.748-.99 1.826-1.056 3.234-.022.33-.033.759-.033 1.287 0 .528.011.957.033 1.287.066 1.43.418 2.519 1.056 3.267.638.726 1.54 1.089 2.706 1.089zm20.948 3.267c-1.76 0-3.245-.308-4.455-.924-1.188-.616-2.101-1.485-2.739-2.607-.616-1.122-.968-2.431-1.056-3.927-.022-.396-.033-.88-.033-1.452s.011-1.056.033-1.452c.088-1.518.451-2.827 1.089-3.927.66-1.122 1.584-1.991 2.772-2.607 1.21-.616 2.673-.924 4.389-.924 1.716 0 3.168.308 4.356.924 1.21.616 2.134 1.485 2.772 2.607.66 1.1 1.034 2.409 1.122 3.927.022.396.033.88.033 1.452s-.011 1.056-.033 1.452c-.088 1.496-.451 2.805-1.089 3.927-.616 1.122-1.529 1.991-2.739 2.607-1.188.616-2.662.924-4.422.924zm0-3.267c1.166 0 2.068-.363 2.706-1.089.638-.748.99-1.837 1.056-3.267.022-.33.033-.759.033-1.287 0-.528-.011-.957-.033-1.287-.066-1.408-.418-2.486-1.056-3.234-.638-.748-1.54-1.122-2.706-1.122s-2.068.374-2.706 1.122c-.638.748-.99 1.826-1.056 3.234-.022.33-.033.759-.033 1.287 0 .528.011.957.033 1.287.066 1.43.418 2.519 1.056 3.267.638.726 1.54 1.089 2.706 1.089zm19.728 3.267c-1.144 0-2.156-.187-3.036-.561a5.91 5.91 0 01-2.145-1.65c-.572-.704-1.012-1.529-1.32-2.475-.308-.968-.484-2.024-.528-3.168a19.265 19.265 0 01-.033-1.056c0-.33.011-.693.033-1.089.044-1.1.209-2.123.495-3.069.308-.946.748-1.771 1.32-2.475a6.056 6.056 0 012.178-1.683c.88-.396 1.892-.594 3.036-.594 1.188 0 2.189.209 3.003.627.836.396 1.529.913 2.079 1.551V1.362c0-.22.066-.407.198-.561a.804.804 0 01.594-.231h2.805c.22 0 .407.077.561.231a.764.764 0 01.231.561v21.846c0 .22-.077.407-.231.561a.764.764 0 01-.561.231h-2.607a.804.804 0 01-.594-.231.833.833 0 01-.198-.561v-1.221c-.55.682-1.254 1.243-2.112 1.683-.836.44-1.892.66-3.168.66zm1.221-3.531c.924 0 1.661-.209 2.211-.627.55-.418.957-.946 1.221-1.584.264-.66.407-1.331.429-2.013.022-.396.033-.814.033-1.254 0-.462-.011-.891-.033-1.287a4.647 4.647 0 00-.462-1.881 3.825 3.825 0 00-1.254-1.518c-.55-.396-1.265-.594-2.145-.594-.924 0-1.661.209-2.211.627a3.385 3.385 0 00-1.155 1.584 7.508 7.508 0 00-.429 2.178c-.022.66-.022 1.32 0 1.98.044.792.187 1.518.429 2.178.242.66.627 1.199 1.155 1.617.55.396 1.287.594 2.211.594z" fill="#363853"/></svg>