<svg viewBox="0 0 44 45" xmlns="http://www.w3.org/2000/svg" xmlns:xlink="http://www.w3.org/1999/xlink"><style>:root&gt;svg{display:none}:root&gt;svg:target{display:block}</style><svg fill="none" viewBox="0 0 14 13" id="icon-arrow-right" xmlns="http://www.w3.org/2000/svg"><path d="M8.121.323a1 1 0 000 1.414l3.292 3.293L1 5.037a1 1 0 100 2l10.414-.007-3.293 3.293a1 1 0 101.414 1.414l3.586-3.585a3 3 0 000-4.243L9.535.323a1 1 0 00-1.414 0z" fill="#000"/></svg><svg fill="none" viewBox="0 0 30 22" id="icon-burger" xmlns="http://www.w3.org/2000/svg"><path stroke="#363853" stroke-width="2" d="M0 1h30M0 11h30M0 21h30"/></svg><svg fill="none" viewBox="0 0 22 22" id="icon-call" xmlns="http://www.w3.org/2000/svg"><path d="M13.353 1.53a7.97 7.97 0 017.04 7.032m-7.04-3.489a4.426 4.426 0 013.5 3.5" stroke="#000" stroke-width="1.5" stroke-linecap="round" stroke-linejoin="round"/><path clip-rule="evenodd" d="M10.031 11.502c3.99 3.988 4.894-.626 7.434 1.913 2.449 2.448 3.857 2.938.754 6.04-.389.312-2.858 4.069-11.535-4.605-8.677-8.676-4.922-11.148-4.61-11.536 3.11-3.11 3.593-1.695 6.041.753 2.54 2.54-2.072 3.447 1.916 7.435z" stroke="#000" stroke-width="1.5" stroke-linecap="round" stroke-linejoin="round"/></svg><svg fill="none" viewBox="0 0 21 20" id="icon-cart" xmlns="http://www.w3.org/2000/svg"><path d="M1 1.03l2.08.356.963 11.34a1.79 1.79 0 001.8 1.633h10.909a1.794 1.794 0 001.785-1.528l.949-6.482a1.328 1.328 0 00-1.135-1.501c-.064-.009-14.937-.014-14.937-.014m8.961 3.653h2.773" stroke="#000" stroke-width="1.5" stroke-linecap="round" stroke-linejoin="round"/><path fill-rule="evenodd" clip-rule="evenodd" d="M5.404 17.786a.54.54 0 01.544.538.541.541 0 01-.544.538.541.541 0 01-.544-.538.54.54 0 01.544-.538zm11.281 0c.3 0 .545.24.545.538a.542.542 0 01-.545.538.541.541 0 01-.544-.538.54.54 0 01.544-.538z" fill="#000" stroke="#000" stroke-width="1.5" stroke-linecap="round" stroke-linejoin="round"/></svg><svg fill="none" viewBox="0 0 44 45" id="icon-category-asia" xmlns="http://www.w3.org/2000/svg"><g clip-path="url(#aea)"><g clip-path="url(#aeb)" fill="#000"><path d="M15.132 13.597h2.124a1 1 0 011 1v1.464a.645.645 0 101.29 0v-1.464a2.292 2.292 0 00-2.29-2.29h-2.124a.984.984 0 010-1.966h4.711a2.275 2.275 0 002.272-2.272 2.275 2.275 0 00-2.272-2.272h-3.77a.645.645 0 000 1.29h3.77a.984.984 0 010 1.965h-4.711a2.275 2.275 0 00-2.273 2.272 2.275 2.275 0 002.273 2.273zm-7.743 4.325h2.108c.544 0 .987.443.987.988v1.453a.644.644 0 101.29 0V18.91a2.279 2.279 0 00-2.277-2.277H7.39a.972.972 0 010-1.94h2.465a.645.645 0 000-1.29H7.389a2.262 2.262 0 00-2.26 2.26 2.262 2.262 0 002.26 2.26zm18.263 8.92a.645.645 0 100-1.289.645.645 0 000 1.29zm3.18 1.461a.645.645 0 100-1.289.645.645 0 000 1.29zm1.891 2.235a.645.645 0 100-1.29.645.645 0 000 1.29zm-2.664-5.243a.644.644 0 100-1.289.644.644 0 000 1.29zm-2.149 5.672a.645.645 0 100-1.289.645.645 0 000 1.29z"/><path d="M42.911 22.84h-1.828l.904-1.867A2.507 2.507 0 0044 18.52a2.506 2.506 0 00-2.102-2.47c-1.315-2.37-3.885-4.149-7.001-4.86v-.048a.645.645 0 00-1.264-.176 13.82 13.82 0 00-1.197-.1.644.644 0 00-1.163 0 14.2 14.2 0 00-1.197.1.644.644 0 00-1.264.176v.049c-3.116.71-5.686 2.49-7.001 4.859a2.506 2.506 0 00-2.093 2.685c-2.975.277-5.649 1.52-7.655 3.385h-4.05a.909.909 0 00-.69.319H5.43A2.118 2.118 0 003.473 21.1a2.106 2.106 0 00-2.082 2.397 2.107 2.107 0 00-1.066 3.104 2.106 2.106 0 001.778 3.229c.878 0 1.648-.554 1.958-1.337h1.704a.91.91 0 00.586.623l2.02.686a10.898 10.898 0 00-.002 1.223c-.316.076-.61.207-.873.383a2.7 2.7 0 00-1.51-.46 2.721 2.721 0 00-2.717 2.719l.002.068h-.754a1.08 1.08 0 00-.985.624 1.08 1.08 0 00.144 1.156l1.934 2.35c.207.252.514.397.84.397h27.26a.644.644 0 100-1.29H4.545l-1.604-1.948h39.544l-1.603 1.949h-6.164a.644.644 0 100 1.289h6.258c.327 0 .633-.145.84-.397l1.934-2.35a1.08 1.08 0 00.144-1.156 1.079 1.079 0 00-.984-.624h-.638a5.41 5.41 0 00.64-3.672.645.645 0 00-.52-.519 5.409 5.409 0 00-5.008 1.731c-.37-.2-.79-.316-1.237-.325v-1.226h.688a1.98 1.98 0 001.977-1.977v-.865h4.1c.6 0 1.088-.488 1.088-1.089V23.93c0-.6-.488-1.088-1.089-1.088zM6.291 33.737H4.56l-.002-.068a1.43 1.43 0 012.053-1.284 2.7 2.7 0 00-.323 1.284c0 .023.002.045.003.068zm32.225-1.785a4.116 4.116 0 013.184-1.194 4.118 4.118 0 01-1.005 2.979h-1.063l.881-.88a.644.644 0 10-.911-.912l-.914.913a2.71 2.71 0 00-.348-.717c.057-.065.115-.127.176-.189zm-13.013-17.98a10.719 10.719 0 013.309-1.452v.663a.644.644 0 101.29 0v-.919c.364-.052.735-.086 1.108-.105v1.024a.644.644 0 101.289 0V12.16c.373.02.743.053 1.109.105v.92a.644.644 0 101.289 0v-.664c1.206.308 2.333.799 3.309 1.452.95.637 1.724 1.406 2.288 2.256a2.526 2.526 0 00-.604.375 2.506 2.506 0 00-1.607-.587c-.595 0-1.163.214-1.607.587a2.506 2.506 0 00-1.607-.587c-.595 0-1.163.214-1.607.587a2.506 2.506 0 00-1.608-.587c-.594 0-1.162.214-1.607.587a2.506 2.506 0 00-1.607-.587c-.594 0-1.162.214-1.607.587a2.506 2.506 0 00-1.607-.587c-.594 0-1.162.214-1.607.587a2.524 2.524 0 00-.605-.375c.565-.85 1.339-1.62 2.29-2.256zm-3.291 3.333c.43 0 .832.233 1.05.607a.645.645 0 001.114 0 1.22 1.22 0 011.05-.607c.43 0 .832.233 1.05.607a.644.644 0 001.115 0 1.219 1.219 0 011.05-.607c.43 0 .832.233 1.049.607a.644.644 0 001.115 0 1.22 1.22 0 011.05-.607c.43 0 .832.233 1.049.607a.644.644 0 001.115 0 1.22 1.22 0 011.05-.607c.43 0 .832.233 1.05.607a.645.645 0 001.114 0 1.22 1.22 0 011.05-.607c.43 0 .832.233 1.05.607a.644.644 0 001.114 0c.218-.374.62-.607 1.05-.607a1.215 1.215 0 010 2.427c-.43 0-.832-.232-1.05-.607a.645.645 0 00-1.114 0c-.218.375-.62.607-1.05.607-.43 0-.833-.232-1.05-.607a.645.645 0 00-1.115 0c-.217.375-.62.607-1.05.607-.43 0-.832-.232-1.049-.607a.644.644 0 00-1.115 0c-.217.375-.62.607-1.05.607-.43 0-.832-.232-1.05-.607a.645.645 0 00-1.114 0c-.218.375-.62.607-1.05.607-.43 0-.832-.232-1.05-.607a.645.645 0 00-1.114 0 1.22 1.22 0 01-.54.493 13.364 13.364 0 00-4.927-.942 1.215 1.215 0 011.202-1.37v-.001zm-13.82 6.103h2.472a11.78 11.78 0 00-.712.984h-1.76v-.984zm-2.66 3.796H3.558a.645.645 0 00-.643.592.818.818 0 01-.81.745.815.815 0 01-.519-1.442.644.644 0 000-.994.813.813 0 111.33-.697.645.645 0 00.642.592h2.176v1.204zm.221-2.493H4.061a2.129 2.129 0 00-1.36-1.248.813.813 0 111.583-.327.645.645 0 00.642.59h2.177v.666h-.46a.909.909 0 00-.69.319zm4.48 9.025H7.58a1.43 1.43 0 011.427-1.497 1.43 1.43 0 011.428 1.429l-.002.068zm19.879 0h-2.244l-.002-.068a1.43 1.43 0 012.439-1.01 2.703 2.703 0 00-.196 1.01c0 .023.002.045.003.068zm-.817-2.786a2.721 2.721 0 00-2.719 2.718c0 .023.002.045.003.068H11.722l.002-.068c0-1.273-.88-2.344-2.063-2.638a9.739 9.739 0 01-.016-.795l6.592 2.239a4.113 4.113 0 003.753-.556 4.106 4.106 0 001.732-3.375c0-.484-.083-.96-.247-1.413a.645.645 0 10-1.212.44c.113.311.17.639.17.973a2.83 2.83 0 01-1.195 2.326 2.83 2.83 0 01-2.587.384l-9.629-3.27v-2.302h10.55c.323 0 .641.054.946.161a.644.644 0 10.427-1.216 4.144 4.144 0 00-1.373-.234h-5.845c2.056-2.677 5.438-4.428 9.256-4.428 6.253 0 11.34 4.696 11.34 10.468 0 .206-.006.411-.02.616a2.72 2.72 0 00-1.042.556 2.705 2.705 0 00-1.766-.654zm4.959 2.786h-2.853a1.43 1.43 0 011.427-1.497c.787 0 1.428.64 1.428 1.429 0 .023 0 .045-.002.068zm.404-2.486c-.102.052-.202.11-.297.175a2.704 2.704 0 00-.964-.414c.01-.192.016-.385.016-.579 0-.237-.01-.473-.025-.707h1.27v1.524zm2.665 2.418c0 .023-.002.045-.003.068h-1.777l.002-.068a2.7 2.7 0 00-.313-1.266 1.43 1.43 0 012.09 1.266zm0-5.92c0 .38-.309.688-.688.688h-3.407a10.96 10.96 0 00-.404-1.553h4.499v.865zm5.188-2.154H32.493a11.526 11.526 0 00-.853-1.464h2.735a.645.645 0 000-1.29h-3.756a12.417 12.417 0 00-2.077-1.82l.098.001c.595 0 1.162-.214 1.607-.587a2.506 2.506 0 001.607.587c.595 0 1.163-.214 1.608-.587a2.506 2.506 0 001.607.587c.594 0 1.162-.214 1.607-.587a2.506 2.506 0 001.607.587c.594 0 1.162-.214 1.607-.587.215.18.459.323.72.423l-.96 1.984h-2.267a.644.644 0 100 1.289h5.328v1.464z"/></g></g><defs><clipPath id="aea"><path fill="#fff" transform="translate(0 .03)" d="M0 0h44v44H0z"/></clipPath><clipPath id="aeb"><path fill="#fff" transform="translate(0 .03)" d="M0 0h44v44H0z"/></clipPath></defs></svg><svg fill="none" viewBox="0 0 44 45" id="icon-category-burger" xmlns="http://www.w3.org/2000/svg"><g clip-path="url(#afa)" fill="#000"><path d="M44 20.366c0-1.69-1.09-3.128-2.602-3.654-.232-5.24-2.189-9.262-5.825-11.965C32.254 2.28 27.688 1.03 22 1.03c-5.688 0-10.254 1.25-13.573 3.717-3.636 2.703-5.593 6.725-5.825 11.965A3.873 3.873 0 000 20.366c0 .99.374 1.893.988 2.578A3.852 3.852 0 000 25.522c0 1.7 1.103 3.146 2.63 3.663.553 5.89 5.56 10.517 11.636 10.517h15.468c6.076 0 11.084-4.627 11.636-10.517A3.873 3.873 0 0044 25.522a3.85 3.85 0 00-.988-2.578A3.851 3.851 0 0044 20.366zM22 3.608c7.393 0 16.151 2.279 16.803 12.89H5.197C5.849 5.887 14.607 3.608 22 3.608zM3.867 19.077h36.266c.71 0 1.289.578 1.289 1.289 0 .71-.578 1.289-1.29 1.289H3.868a1.29 1.29 0 01-1.289-1.29c0-.71.578-1.288 1.29-1.288zm25.867 18.046H14.266c-4.581 0-8.383-3.367-9.016-7.734h1.195c.862 0 1.134.293 1.677.877.667.718 1.58 1.701 3.566 1.701 2 0 2.889-.993 3.538-1.718.513-.572.77-.86 1.618-.86.848 0 1.105.288 1.617.86.65.725 1.54 1.718 3.539 1.718 2 0 2.89-.993 3.538-1.718.513-.572.77-.86 1.618-.86.848 0 1.105.288 1.618.86.65.725 1.539 1.718 3.538 1.718 2 0 2.89-.993 3.539-1.718.513-.572.77-.86 1.618-.86h1.281c-.633 4.367-4.435 7.735-9.016 7.735zm10.399-10.312h-2.664c-2 0-2.89.993-3.539 1.718-.512.573-.77.86-1.617.86-.848 0-1.106-.287-1.618-.86-.65-.725-1.539-1.718-3.539-1.718s-2.889.993-3.538 1.718c-.513.573-.77.86-1.618.86-.848 0-1.105-.287-1.618-.86-.65-.725-1.538-1.718-3.538-1.718-2 0-2.89.993-3.539 1.718-.512.573-.77.86-1.617.86-.862 0-1.135-.293-1.677-.877-.667-.718-1.58-1.701-3.566-1.701H3.867a1.29 1.29 0 01-1.289-1.289c0-.71.578-1.29 1.29-1.29h36.265a1.29 1.29 0 010 2.578z"/><path d="M14.266 13.92a1.289 1.289 0 100-2.578 1.289 1.289 0 000 2.578zm15.468 0a1.289 1.289 0 100-2.578 1.289 1.289 0 000 2.578zm-5.156-2.578a1.289 1.289 0 100-2.578 1.289 1.289 0 000 2.578zm-5.156-2.578a1.289 1.289 0 100-2.578 1.289 1.289 0 000 2.578z"/></g><defs><clipPath id="afa"><path fill="#fff" transform="translate(0 .03)" d="M0 0h44v44H0z"/></clipPath></defs></svg><svg fill="none" viewBox="0 0 44 44" id="icon-category-dish" xmlns="http://www.w3.org/2000/svg"><g clip-path="url(#aga)" fill="#000"><path d="M31.158 14.687l-.47-1.531c-.599-1.74-2.51-2.671-4.27-2.08a3.347 3.347 0 00-2.105 2.08l-.47 1.531a8.506 8.506 0 00-.244 3.987 3.754 3.754 0 001.954 2.613l-.527 11.65c-.07.65.143 1.3.587 1.784a2.583 2.583 0 003.78 0 2.248 2.248 0 00.587-1.736l-.53-11.7a3.753 3.753 0 001.95-2.611 8.506 8.506 0 00-.242-3.987zm-1.202 3.735a2.307 2.307 0 01-1.522 1.731.724.724 0 00-.474.711l.557 12.236a.833.833 0 01-.22.657 1.142 1.142 0 01-1.594 0 .863.863 0 01-.216-.705l.553-12.188a.725.725 0 00-.474-.71 2.307 2.307 0 01-1.522-1.732 7.068 7.068 0 01.202-3.31l.47-1.532a1.908 1.908 0 013.568 0l.47 1.532a7.078 7.078 0 01.202 3.31zM19.8 10.902a.73.73 0 00-.733.725v6.223l-1.986 1.962a.72.72 0 00-.214.549l.641 12.684a.98.98 0 01-.277.739c-.401.4-1.055.403-1.46.006l-.007-.006a.98.98 0 01-.277-.739l.646-12.684a.72.72 0 00-.214-.549l-1.986-1.962v-6.223a.73.73 0 00-.733-.725.73.73 0 00-.733.725v6.523a.72.72 0 00.214.513l1.97 1.947-.625 12.365c-.067 1.35.987 2.5 2.354 2.565 1.366.066 2.528-.976 2.594-2.327a2.362 2.362 0 000-.238L18.35 20.61l1.97-1.947a.72.72 0 00.214-.513v-6.523a.73.73 0 00-.733-.725z"/><path d="M15.4 10.902a.73.73 0 00-.733.725v5.798c0 .4.328.725.733.725a.73.73 0 00.733-.724v-5.8a.73.73 0 00-.733-.724zm2.2 0a.73.73 0 00-.733.725v5.798c0 .4.328.725.733.725a.73.73 0 00.733-.724v-5.8a.73.73 0 00-.733-.724z"/><path d="M22 .03C9.85.03 0 9.765 0 21.775c0 12.009 9.85 21.744 22 21.744s22-9.735 22-21.744C43.986 9.77 34.145.043 22 .03zm0 42.04c-11.34 0-20.533-9.087-20.533-20.296C1.467 10.566 10.66 1.48 22 1.48c11.34 0 20.533 9.087 20.533 20.296C42.52 32.977 33.335 42.056 22 42.069z"/><path d="M24.38 35.38a.731.731 0 00-.829-.647l.003-.001a13.618 13.618 0 01-3.108 0 .732.732 0 00-.814.636.727.727 0 00.643.805c1.145.132 2.302.132 3.447 0a.727.727 0 00.658-.792zm8.84-22.946a.74.74 0 00-1.033-.09.72.72 0 00-.091 1.024 12.936 12.936 0 01-.778 17.648.719.719 0 00-.002 1.025.74.74 0 001.037.002 14.374 14.374 0 00.867-19.609zM17.086 9.611h-.004.004zm8.374-1.928a14.96 14.96 0 00-8.633.524.722.722 0 00.258 1.403.741.741 0 00.256-.047 13.47 13.47 0 017.773-.47.724.724 0 10.345-1.41zM12.65 30.98a12.887 12.887 0 01-3.85-9.206 12.85 12.85 0 012.523-7.674.72.72 0 00-.145-1.015.739.739 0 00-1.04.161 14.371 14.371 0 001.472 18.76.74.74 0 001.039 0 .72.72 0 000-1.026z"/></g><defs><clipPath id="aga"><path fill="#fff" transform="translate(0 .03)" d="M0 0h44v43.489H0z"/></clipPath></defs></svg><svg fill="none" viewBox="0 0 44 45" id="icon-category-pizza" xmlns="http://www.w3.org/2000/svg"><g clip-path="url(#aha)" fill="#000"><path d="M43.745 43.782a.859.859 0 01-.892.198L7.159 31.253a4.698 4.698 0 01-4.256.338A4.706 4.706 0 01.359 25.45a46.081 46.081 0 0110.038-15.023A46.08 46.08 0 0125.42.388 4.676 4.676 0 0127.213.03c1.846 0 3.6 1.093 4.35 2.902a4.687 4.687 0 01-.026 3.65l12.418 36.31a.86.86 0 01-.21.89zM12.563 31.355l3.783 1.349a2.186 2.186 0 00-.264-3.236 2.176 2.176 0 00-1.62-.433 2.177 2.177 0 00-1.451.838 2.17 2.17 0 00-.448 1.482zM29.974 3.59a2.985 2.985 0 00-3.896-1.614C15.075 6.534 6.505 15.104 1.947 26.107a2.962 2.962 0 000 2.282 2.963 2.963 0 001.614 1.614 2.963 2.963 0 002.282 0 2.963 2.963 0 001.614-1.614 38.432 38.432 0 018.373-12.53 38.433 38.433 0 0112.53-8.373 2.985 2.985 0 001.614-3.896zm7.635 26.06a2.176 2.176 0 00-1.685.855 2.176 2.176 0 00-.434 1.62 2.193 2.193 0 002.458 1.885 2.19 2.19 0 001.012-.41l-1.35-3.95zm1.923 5.62a3.909 3.909 0 11-2.494-7.29l-1.708-4.994-1.964 1.507a.86.86 0 01-1.047-1.364l2.424-1.86-4.442-12.99a4.682 4.682 0 01-1.282.795C19.91 12.846 12.818 19.94 9.045 29.047a4.66 4.66 0 01-.482.882l2.302.82c.08-.693.346-1.354.782-1.922a3.883 3.883 0 013.11-1.53 3.88 3.88 0 012.371.808 3.884 3.884 0 011.496 2.591 3.9 3.9 0 01-.581 2.613l10.682 3.809.405-.978a.86.86 0 111.588.658l-.372.898 11.406 4.066-2.22-6.491z"/><path d="M9.281 20.975zM7.974 23.11a40.668 40.668 0 00-2.237 4.567.86.86 0 11-1.588-.658 42.391 42.391 0 012.332-4.76.86.86 0 111.493.85zm18.919 9.921a3.918 3.918 0 01-4.386-3.365 3.914 3.914 0 013.88-4.42 3.918 3.918 0 013.871 3.4 3.914 3.914 0 01-3.365 4.385zm1.661-4.162a2.195 2.195 0 00-2.458-1.886 2.193 2.193 0 00-1.885 2.458 2.194 2.194 0 002.457 1.886 2.193 2.193 0 001.886-2.458zm-1.885-6.528a3.918 3.918 0 01-4.386-3.365 3.883 3.883 0 01.774-2.89 3.884 3.884 0 013.105-1.53 3.918 3.918 0 013.872 3.4 3.914 3.914 0 01-3.365 4.385zm1.661-4.161a2.195 2.195 0 00-2.457-1.886 2.177 2.177 0 00-1.452.838 2.176 2.176 0 00-.434 1.62 2.195 2.195 0 002.458 1.885 2.193 2.193 0 001.885-2.457zm-7.329 7.722l-2.641.348a.86.86 0 11-.225-1.704l2.641-.348a.86.86 0 01.225 1.704zm-1.339-6.342l-.234 1.772a.859.859 0 11-1.704-.224l.234-1.773a.86.86 0 011.704.225z"/></g><defs><clipPath id="aha"><path fill="#fff" transform="matrix(1 0 0 -1 0 44.03)" d="M0 0h44v44H0z"/></clipPath></defs></svg><svg fill="none" viewBox="0 0 44 45" id="icon-category-sandvich" xmlns="http://www.w3.org/2000/svg"><g clip-path="url(#aia)" fill="#000"><path d="M41.8 6.63h-1.467V5.163a2.2 2.2 0 00-2.2-2.2h-1.747L35.326.841A1.457 1.457 0 0034.012.03H33c-.81 0-1.467.656-1.467 1.466v1.467h-8.066a2.2 2.2 0 00-2.2 2.2V6.63H19.8a2.2 2.2 0 00-2.2 2.2v1.466c0 .81.657 1.467 1.467 1.467h.077l.858 7.577-3.533-.83a11.105 11.105 0 00-.576-.814l-1.247-5.365a.733.733 0 00-.713-.568H9.72C7.73 10.011 5.382 9.219 3.61 9.74L2.532 8.567A1.448 1.448 0 00.928 8.2c-.56.216-.93.755-.928 1.356v32.288a2.188 2.188 0 002.185 2.186h35.948c.373 0 .686-.28.728-.65l3.593-31.617h.08c.81 0 1.466-.657 1.466-1.467V8.83a2.2 2.2 0 00-2.2-2.2zM33 1.496h1.013l.734 1.467H33V1.496zM22.733 5.163c0-.405.329-.733.734-.733h14.666c.405 0 .734.328.734.733V6.63H22.733V5.163zm-2.053 15.84l.046.009.593.14.397 4.162a6.758 6.758 0 00-3.94-1.242 6.28 6.28 0 00-.411-3.848l3.315.779zm1.433 6.486l.01.008c.265.246.517.506.755.78a8.686 8.686 0 011.876 3.386c.124.438.188.89.19 1.345l-6.85-7.47c1.524.17 2.943.86 4.019 1.951zm-7.728-9.32v-.001c1.583 1.819 2.32 4.003 1.97 5.471l-7.463-8.136c1.505-.337 3.795.72 5.493 2.666zm-1.038-4.94l.586 2.498a9.347 9.347 0 00-1.913-1.155 11.565 11.565 0 00-.928-1.342h2.255zm-3.687.546h.003c.06.07.11.147.17.22a3.99 3.99 0 00-2.012.338l-3.015-3.287c1.474.021 3.398 1.058 4.854 2.73zm21.077 28.357a.717.717 0 01-.656.431H2.185a.719.719 0 01-.718-.719l-.014-32.28 14.72 16.047v.004l8.644 9.424.01.011 4.74 5.172c.018.021.035.044.055.065l.983 1.072a.716.716 0 01.132.773zm-4.54-7.757a4.61 4.61 0 00.203-1.352c.385.325.744.68 1.074 1.061.41.468.773.975 1.086 1.512.428.72.73 1.508.895 2.33l-3.257-3.551zm11.281 8.188h-5.342c.275-.76.1-1.61-.45-2.2l-.74-.807a6.691 6.691 0 00-.571-3.593h7.854l-.75 6.6zm.917-8.067h-8.8a11.218 11.218 0 00-1.009-1.374 10.687 10.687 0 00-2.512-2.136 10.145 10.145 0 00-2.09-3.676c-.22-.25-.44-.482-.671-.706l-.58-6.11a.733.733 0 00-.56-.645l-.65-.154-.154-1.332h18.86l-1.834 16.133zm2-17.6H21.203l-.58-5.133H40.98l-.583 5.133zm2.138-6.6H19.067V8.83c0-.405.328-.734.733-.734h22c.405 0 .733.329.733.734v1.466z"/><path d="M31.1 32.297c.042 0 .083-.006.124-.008.011 0 .023.008.034.008a.692.692 0 00.109-.016 3.967 3.967 0 002.899-1.568 5.101 5.101 0 00.714-4.475c-.102-.38-.195-.752-.285-1.112-.572-2.293-1.119-4.456-3.435-4.553-.024 0-.046-.005-.07-.005-.023 0-.057-.005-.09-.005-2.591 0-4.7 2.632-4.7 5.867s2.109 5.867 4.7 5.867zm.568-10.157c.758.298 1.092 1.291 1.604 3.34.092.368.187.752.293 1.141a3.656 3.656 0 01-.464 3.2 2.59 2.59 0 01-.876.734 10.656 10.656 0 00-.733-3.68c-.073-.23-.147-.45-.211-.66-.427-1.389.073-3.188.387-4.075zm-1.576.11a8.05 8.05 0 00-.212 4.393c.068.22.143.448.22.685.367 1.12.807 2.472.627 3.468-1.607-.25-2.86-2.112-2.86-4.366 0-1.947.935-3.6 2.225-4.18zM3.881 38.593l-.518.518A.733.733 0 104.4 40.148l.518-.518a.733.733 0 00-1.037-1.037zm7.012-4.937a.734.734 0 00-1.038-1.038l-.518.519a.733.733 0 101.037 1.038l.519-.519zM4.4 31.778l-.519.519a.733.733 0 101.037 1.036l.519-.518A.733.733 0 004.4 31.778zm0-5.133l-.519.518A.733.733 0 104.918 28.2l.519-.518A.733.733 0 004.4 26.645zM11 38.593l-.518.518a.733.733 0 101.036 1.037l.519-.518A.733.733 0 0011 38.593zm5.348 0l-.518.518a.734.734 0 101.037 1.037l.518-.518a.733.733 0 00-1.037-1.037z"/></g><defs><clipPath id="aia"><path fill="#fff" transform="translate(0 .03)" d="M0 0h44v44H0z"/></clipPath></defs></svg><svg fill="none" viewBox="0 0 22 16" id="icon-check" xmlns="http://www.w3.org/2000/svg"><path d="M7.693 15.03a1.09 1.09 0 01-.763-.309L.317 8.274a1.033 1.033 0 010-1.488 1.098 1.098 0 011.526 0l5.85 5.703L20.157.339a1.098 1.098 0 011.526 0 1.033 1.033 0 010 1.488L8.457 14.72c-.21.206-.487.309-.764.309z" fill="#000"/></svg><svg fill="none" viewBox="0 0 18 11" id="icon-chevron-down" xmlns="http://www.w3.org/2000/svg"><path d="M8.43 10.33L.22 1.322a.76.76 0 010-1.07.75.75 0 011.066 0L9 8.715 16.714.252a.75.75 0 011.066 0 .76.76 0 010 1.07L9.57 10.33a.741.741 0 01-.57.215.748.748 0 01-.57-.216z" fill="#000"/></svg><svg fill="none" viewBox="0 0 11 19" id="icon-chevron-left" xmlns="http://www.w3.org/2000/svg"><path d="M.216 9.6l9.008 8.21a.76.76 0 001.07 0 .75.75 0 000-1.066L1.83 9.03l8.464-7.714a.75.75 0 000-1.066.76.76 0 00-1.07 0L.215 8.46A.742.742 0 000 9.03a.748.748 0 00.215.572z" fill="#000"/></svg><svg fill="none" viewBox="0 0 11 19" id="icon-chevron-right" xmlns="http://www.w3.org/2000/svg"><path d="M10.3 9.6l-9.008 8.21a.76.76 0 01-1.07 0 .75.75 0 010-1.066L8.686 9.03.222 1.316a.75.75 0 010-1.066.76.76 0 011.07 0L10.3 8.46a.741.741 0 01.215.57.748.748 0 01-.215.572z" fill="#000"/></svg><svg fill="none" viewBox="0 0 18 18" id="icon-close" xmlns="http://www.w3.org/2000/svg"><g clip-path="url(#ana)"><path d="M10.055 9.005l7.716-7.716a.75.75 0 10-1.06-1.06L8.995 7.945 1.28.23A.75.75 0 00.22 1.29l7.716 7.716L.22 16.721a.75.75 0 001.06 1.06l7.716-7.716 7.716 7.716a.75.75 0 001.06-1.06l-7.716-7.716z" fill="#363853"/></g><defs><clipPath id="ana"><path fill="#fff" d="M0 0h18v18H0z"/></clipPath></defs></svg><svg fill="none" viewBox="0 0 34 34" id="icon-delivery" xmlns="http://www.w3.org/2000/svg"><path d="M6.518 24.499l.407.97c.288-.118.587-.205.893-.26l-.19-1.034a5.49 5.49 0 00-1.11.324zm-2.791 2.606l.956.458a4.322 4.322 0 011.46-1.676l-.6-.867a5.378 5.378 0 00-1.816 2.085z" fill="#000"/><path d="M32.938 26.81c0-.905-.337-1.777-.948-2.45l-.791.7c.314.346.529.769.623 1.225h-3.666a.536.536 0 00-.442.233l-1.967 2.917h-1.31V27.86a3.658 3.658 0 011.09-2.598 3.746 3.746 0 012.63-1.078h1.062c.522 0 1.033.151 1.468.437l.588-.874a3.723 3.723 0 00-1.525-.575v-1.613a.522.522 0 00-.156-.372.535.535 0 00-.375-.153 2.14 2.14 0 01-1.502-.616 2.09 2.09 0 01-.623-1.485v-2.1h1.593a.534.534 0 00.376-.154.522.522 0 00.156-.371v-3.676a.522.522 0 00-.156-.371.535.535 0 00-.375-.154h-.938c-.221 0-.442.03-.656.09v-.615a.521.521 0 00-.117-.328L25.24 9.106a1.82 1.82 0 00-.43-2.365 1.873 1.873 0 00-2.43.077 1.822 1.822 0 00-.274 2.388 1.86 1.86 0 001.06.74c.432.113.89.068 1.291-.126l1.575 1.946v.663l-2.335-.77a1.448 1.448 0 00-.476-.077h-4.382l-2.522-2.908A1.559 1.559 0 0017 7.382V7.18l.769-.38a.53.53 0 00.276-.335.518.518 0 00-.072-.426l-.872-1.294a.532.532 0 00.309-.18.52.52 0 00.121-.335c0-.835-.337-1.636-.934-2.227a3.21 3.21 0 00-2.253-.923c-1 0-1.927.284-2.616 1.036a3.123 3.123 0 00-.808 2.427l.113 1.124c.048.484.282.931.655 1.25v9.915c0 .369.098.731.285 1.05h-.817c-.18 0-.36.03-.531.09v-6.916c0-.418-.168-.818-.467-1.113a1.605 1.605 0 00-1.127-.462H2.656a1.6 1.6 0 00-1.126.462 1.568 1.568 0 00-.468 1.113v2.625h1.063v-1.05h7.438v5.251H2.125v-3.15H1.062v4.287c0 .246.088.484.247.673.16.189.381.316.626.36l4.971.894v1.232a7.59 7.59 0 00-1.314.43H2.656a.534.534 0 00-.375.154.522.522 0 00-.156.371v2.492a7.393 7.393 0 00-1.063 3.809c0 .14.056.273.156.371.1.099.235.154.376.154h2.435a4.21 4.21 0 001.564 1.908 4.285 4.285 0 004.752 0 4.21 4.21 0 001.564-1.908h8.932a2.687 2.687 0 001.966-.86l.568-.617v1.477a.531.531 0 00.531.525h1.101c.468.8 1.19 1.427 2.054 1.78a4.296 4.296 0 002.727.177 4.252 4.252 0 002.271-1.5 4.17 4.17 0 00.705-3.745.524.524 0 00.173-.387zM22.843 8.17a.782.782 0 01.492-.729.806.806 0 01.868.171.786.786 0 01.173.859.803.803 0 01-1.3.255.784.784 0 01-.233-.557zm-7.6 18.64a1.977 1.977 0 01-1.387-.57 1.93 1.93 0 01-.576-1.37c0-.515.132-.998.48-1.394.31-.353.737-.584 1.205-.65a2.377 2.377 0 001.454-.784c.374-.425.58-.97.58-1.533a.518.518 0 00-.156-.372 1.559 1.559 0 00.065-1.204h1.443l-2.332 5.991a1.208 1.208 0 00-.082.453v1.433h-.694zM17 25.76h2.656a.535.535 0 01.508.372.52.52 0 01-.213.59 1.076 1.076 0 01-.424.088H17v-1.05zm4.123-.093a1.582 1.582 0 00-.484-.622 1.608 1.608 0 00-.727-.315l2.2-5.236a3.03 3.03 0 00-.284-2.874 3.085 3.085 0 00-1.116-1 3.127 3.127 0 00-1.46-.362H17v-.833l.156.154a.533.533 0 00.375.154h5.404a1.557 1.557 0 00.201 1.434 1.607 1.607 0 001.301.666h.002a2.591 2.591 0 00-.533 1.575v4.074c0 .278-.112.545-.311.742l-2.472 2.444zm3.314-9.884a.535.535 0 01-.49-.324.52.52 0 01.115-.572.533.533 0 01.907.37c0 .14-.056.273-.156.372a.535.535 0 01-.375.154zm3.72-2.626v2.626h-1.063V13.32a1.41 1.41 0 01.656-.164h.406zm-2.126 2.1a1.56 1.56 0 00-.673-1.286 1.603 1.603 0 00-1.452-.198v-.937l2.125.7v1.722zm-7.437-2.625h4.25v1.05H17.75l-3.032-2.996-.75.742 1.969 1.947v1.883H12.75V8.957h2.412l3.028 3.492a.53.53 0 00.404.183zm-6.078-9.81c.485-.53 1.13-.691 1.828-.691.47 0 .928.155 1.3.44.373.285.64.684.757 1.135h-2.057a.534.534 0 00-.376.154.522.522 0 00-.155.371v1.247a.848.848 0 01-.24.586.868.868 0 01-1.482-.5l-.114-1.124a2.054 2.054 0 01.539-1.618zm.433 4.56c.51-.001 1-.202 1.361-.559.361-.356.564-.84.565-1.345v-.722h1.063a.52.52 0 00.089.291l.728 1.08-.524.26a.53.53 0 00-.294.47v.524c0 .14-.056.273-.155.372a.535.535 0 01-.376.154H12.75V7.37a1.9 1.9 0 00.2.01zm-.199 9.451v-.525h6.501c.335 0 .665.082.96.238.296.156.547.382.733.657a1.997 1.997 0 01.187 1.889l-2.36 5.617h-1.529l2.379-6.112a.52.52 0 00-.249-.653.536.536 0 00-.247-.06h-5.313a1.07 1.07 0 01-.75-.309 1.045 1.045 0 01-.312-.742zm-1.594 2.1h4.25c.141 0 .276.056.376.154a.522.522 0 01-.376.896h-4.25a.534.534 0 01-.375-.153.522.522 0 01.375-.897zm-9.031-7.35v-.526c0-.14.056-.273.156-.371a.535.535 0 01.375-.154h6.375c.141 0 .276.056.376.154.1.098.155.232.155.371v.525H2.125zm0 7.35h7.438v1.05H7.485l-5.36-.963v-.087zm1.72 4.726c-.231.185-.45.384-.658.594v-.594h.657zm4.124 7.876a3.24 3.24 0 01-1.592-.425 3.193 3.193 0 01-1.168-1.15h1.356a2.136 2.136 0 002.808 0h1.356a3.192 3.192 0 01-1.169 1.15 3.24 3.24 0 01-1.591.425zm14.051-3.14a1.595 1.595 0 01-1.18.515H2.148a6.358 6.358 0 011.592-3.701 6.487 6.487 0 013.513-2.03 2.01 2.01 0 01.418-.045h3.486v-1.05H7.97v-1.05h7.856a1.315 1.315 0 01-1.01.753 3.04 3.04 0 00-1.857 1c-.514.586-.74 1.318-.74 2.083 0 .711.258 1.4.726 1.94H8.5v1.05h11.027a2.176 2.176 0 001.503-.616l3.316-3.277c.398-.395.621-.929.623-1.485v-4.074c0-.325.102-.643.293-.909.19-.266.459-.467.77-.576v2.01c0 .745.267 1.465.753 2.033a3.2 3.2 0 001.902 1.074v1.094c-.33 0-.667-.02-.995.023a4.82 4.82 0 00-2.683 1.15 4.727 4.727 0 00-1.507 2.476l-1.482 1.612zm6.42-1.06h.027l.642.633a.588.588 0 01.074.744.595.595 0 01-.612.25.597.597 0 01-.305-.16l-.489-.484.663-.983zm.247 4.2a3.22 3.22 0 01-1.332-.291 3.2 3.2 0 01-1.09-.814.528.528 0 00.208-.179l.46-.682a2.137 2.137 0 002.382.823 2.123 2.123 0 001.083-.76 2.083 2.083 0 00.129-2.297h1.166a3.119 3.119 0 01-.403 2.868 3.179 3.179 0 01-1.137.98 3.22 3.22 0 01-1.465.352z" fill="#000"/><path d="M4.25 13.682H3.187v3.15H4.25v-3.15z" fill="#000"/></svg><svg fill="none" viewBox="0 0 10 21" id="icon-facebook" xmlns="http://www.w3.org/2000/svg"><path d="M2.547 20.556v-9.631H0V7.457h2.547V4.495C2.547 2.167 4.05.03 7.517.03 8.922.03 9.96.164 9.96.164l-.082 3.239s-1.058-.01-2.213-.01c-1.25 0-1.45.575-1.45 1.532v2.532h3.763l-.164 3.468h-3.6v9.631H2.547z" fill="#000"/></svg><svg fill="none" viewBox="0 0 32 36" id="icon-filters" xmlns="http://www.w3.org/2000/svg"><g clip-path="url(#aqa)"><path d="M13.78 28.125H1.14c-.63 0-1.14.505-1.14 1.125s.51 1.125 1.139 1.125H13.78c.528 2.567 2.825 4.5 5.58 4.5 2.754 0 5.05-1.933 5.578-4.5h5.809c.628 0 1.139-.504 1.139-1.125 0-.62-.51-1.125-1.14-1.125h-5.808c-.527-2.567-2.824-4.5-5.579-4.5-2.754 0-5.051 1.933-5.579 4.5zm8.996 1.125c0 1.864-1.53 3.375-3.417 3.375-1.887 0-3.416-1.51-3.416-3.375 0-1.864 1.53-3.375 3.416-3.375 1.887 0 3.416 1.51 3.416 3.375zM2.393 16.875H1.139C.51 16.875 0 17.379 0 18s.51 1.125 1.139 1.125h1.254c.527 2.567 2.824 4.5 5.578 4.5 2.755 0 5.052-1.933 5.58-4.5h17.196c.628 0 1.139-.504 1.139-1.125s-.51-1.125-1.14-1.125H13.55c-.527-2.567-2.824-4.5-5.579-4.5-2.754 0-5.051 1.933-5.578 4.5zM11.388 18c0 1.864-1.53 3.375-3.417 3.375-1.887 0-3.416-1.51-3.416-3.375 0-1.864 1.53-3.375 3.416-3.375 1.887 0 3.417 1.51 3.417 3.375zm6.947-12.375H1.14C.51 5.625 0 6.129 0 6.75s.51 1.125 1.139 1.125h17.197c.527 2.567 2.824 4.5 5.578 4.5 2.755 0 5.052-1.933 5.58-4.5h1.253c.628 0 1.139-.504 1.139-1.125 0-.62-.51-1.125-1.14-1.125h-1.253c-.527-2.567-2.824-4.5-5.579-4.5-2.754 0-5.051 1.933-5.579 4.5zm8.996 1.125c0 1.864-1.53 3.375-3.417 3.375-1.887 0-3.416-1.51-3.416-3.375 0-1.864 1.53-3.375 3.416-3.375 1.887 0 3.417 1.51 3.417 3.375z" fill="#000"/></g><defs><clipPath id="aqa"><path fill="#fff" d="M0 0h31.886v36H0z"/></clipPath></defs></svg><svg fill="none" viewBox="0 0 20 20" id="icon-instagram" xmlns="http://www.w3.org/2000/svg"><path d="M9.748 6.528A3.258 3.258 0 006.496 9.78a3.258 3.258 0 003.252 3.251 3.258 3.258 0 003.25-3.251 3.258 3.258 0 00-3.25-3.252zm9.751 3.252c0-1.347.013-2.68-.063-4.025-.076-1.56-.432-2.946-1.573-4.088C16.719.523 15.336.17 13.775.094 12.428.018 11.094.03 9.75.03 8.404.03 7.07.018 5.725.094 4.165.17 2.78.526 1.637 1.667.493 2.811.14 4.194.064 5.755-.01 7.102.001 8.435.001 9.78c0 1.344-.012 2.68.063 4.024.076 1.561.432 2.947 1.573 4.088 1.144 1.144 2.527 1.498 4.088 1.574 1.347.075 2.681.063 4.025.063 1.346 0 2.68.012 4.025-.063 1.56-.076 2.946-.432 4.088-1.574 1.144-1.144 1.497-2.527 1.573-4.088.078-1.344.063-2.678.063-4.024zm-9.751 5.003A4.996 4.996 0 014.745 9.78a4.996 4.996 0 015.003-5.003A4.996 4.996 0 0114.75 9.78a4.996 4.996 0 01-5.002 5.003zm5.207-9.042a1.167 1.167 0 01-1.168-1.169c0-.646.522-1.168 1.168-1.168a1.167 1.167 0 01.827 1.995 1.167 1.167 0 01-.827.342z" fill="#000"/></svg><svg fill="none" viewBox="0 0 11 19" id="icon-left" xmlns="http://www.w3.org/2000/svg"><path d="M8.197 18.079L.45 10.333a1.548 1.548 0 010-2.184L8.197.403a1.548 1.548 0 012.184 2.184L3.735 9.233l6.646 6.662c.601.604.601 1.58 0 2.184a1.548 1.548 0 01-2.184 0z" fill="#000"/></svg><svg fill="none" viewBox="0 0 18 20" id="icon-location" xmlns="http://www.w3.org/2000/svg"><path clip-rule="evenodd" d="M11.5 8.53a2.5 2.5 0 10-5 0 2.5 2.5 0 005 0z" stroke="#000" stroke-width="1.5" stroke-linecap="round" stroke-linejoin="round"/><path clip-rule="evenodd" d="M9 19.03c-1.199 0-7.5-5.102-7.5-10.437C1.5 4.416 4.857 1.03 9 1.03c4.142 0 7.5 3.386 7.5 7.563 0 5.335-6.302 10.437-7.5 10.437z" stroke="#000" stroke-width="1.5" stroke-linecap="round" stroke-linejoin="round"/></svg><svg fill="none" viewBox="0 0 22 20" id="icon-message" xmlns="http://www.w3.org/2000/svg"><path d="M16.903 6.881l-4.444 3.613c-.84.666-2.02.666-2.86 0L5.12 6.881" stroke="#000" stroke-width="1.5" stroke-linecap="round" stroke-linejoin="round"/><path clip-rule="evenodd" d="M15.909 19.03C18.95 19.038 21 16.54 21 13.468V6.6c0-3.071-2.05-5.57-5.091-5.57H6.09C3.05 1.03 1 3.529 1 6.6v6.868c0 3.071 2.05 5.57 5.091 5.562h9.818z" stroke="#000" stroke-width="1.5" stroke-linecap="round" stroke-linejoin="round"/></svg><svg fill="none" viewBox="0 0 20 20" id="icon-minus" xmlns="http://www.w3.org/2000/svg"><g clip-path="url(#ava)"><path d="M19.167 9.067H.833A.828.828 0 000 9.888c0 .454.373.822.833.822h18.334c.46 0 .833-.368.833-.822a.828.828 0 00-.833-.821z" fill="#000"/></g><defs><clipPath id="ava"><path fill="#fff" transform="translate(0 .03)" d="M0 0h20v19.717H0z"/></clipPath></defs></svg><svg fill="none" viewBox="0 0 20 21" id="icon-plus" xmlns="http://www.w3.org/2000/svg"><g clip-path="url(#awa)"><path d="M19 9.03h-8v-8a1 1 0 00-2 0v8H1a1 1 0 000 2h8v8a1 1 0 002 0v-8h8a1 1 0 000-2z" fill="#000"/></g><defs><clipPath id="awa"><path fill="#fff" transform="translate(0 .03)" d="M0 0h20v20H0z"/></clipPath></defs></svg><svg fill="none" viewBox="0 0 24 20" id="icon-quote-close" xmlns="http://www.w3.org/2000/svg"><path d="M18.783 9.595c-1.276.116-2.32.609-3.13 1.478-.812.87-1.218 1.971-1.218 3.305 0 1.449.435 2.637 1.304 3.565.87.87 1.971 1.304 3.305 1.304 1.507 0 2.724-.55 3.652-1.652.87-1.101 1.304-2.812 1.304-5.13C24 8 22.522 4.145 19.565.899c-.58-.58-1.246-.87-2-.87-.638 0-1.188.233-1.652.696-.464.406-.696.899-.696 1.479 0 .637.232 1.188.696 1.652 1.507 1.565 2.464 3.478 2.87 5.739zm-14.435 0c-1.276.116-2.319.609-3.13 1.478C.405 11.943 0 13.044 0 14.378c0 1.449.435 2.637 1.304 3.565.87.87 1.971 1.304 3.305 1.304 1.507 0 2.724-.55 3.652-1.652.87-1.101 1.304-2.812 1.304-5.13C9.565 8 8.087 4.145 5.13.899c-.58-.58-1.246-.87-2-.87-.637 0-1.188.233-1.652.696-.464.406-.695.899-.695 1.479 0 .637.231 1.188.695 1.652 1.508 1.565 2.464 3.478 2.87 5.739z" fill="#000"/></svg><svg fill="none" viewBox="0 0 24 20" id="icon-quote-open" xmlns="http://www.w3.org/2000/svg"><path d="M5.217 9.595c1.276.116 2.32.609 3.13 1.478.812.87 1.218 1.971 1.218 3.305 0 1.449-.435 2.637-1.304 3.565-.87.87-1.971 1.304-3.304 1.304-1.508 0-2.725-.55-3.653-1.652C.434 16.494 0 14.783 0 12.465 0 8 1.478 4.145 4.435.899c.58-.58 1.246-.87 2-.87.637 0 1.188.233 1.652.696.464.406.696.899.696 1.479 0 .637-.232 1.188-.696 1.652C6.58 5.42 5.623 7.334 5.217 9.595zm14.435 0c1.275.116 2.319.609 3.13 1.478.812.87 1.218 1.971 1.218 3.305 0 1.449-.435 2.637-1.304 3.565-.87.87-1.971 1.304-3.305 1.304-1.507 0-2.724-.55-3.652-1.652-.87-1.101-1.304-2.812-1.304-5.13 0-4.464 1.478-8.32 4.435-11.566.58-.58 1.246-.87 2-.87.637 0 1.188.233 1.652.696.463.406.695.899.695 1.479 0 .637-.232 1.188-.695 1.652-1.507 1.565-2.464 3.478-2.87 5.739z" fill="#000"/></svg><svg fill="none" viewBox="0 0 34 35" id="icon-restorant" xmlns="http://www.w3.org/2000/svg"><path d="M32.406 28.186h-3.718V17.514a2.31 2.31 0 001.69-3.093l-1.69-4.396V1.624a.531.531 0 00-.532-.532H5.844a.531.531 0 00-.532.532v8.4l-1.69 4.397a2.31 2.31 0 001.69 3.093v10.672H1.595a.531.531 0 00-.532.531v3.719a.532.532 0 00.532.531h30.812a.532.532 0 00.532-.531v-3.719a.53.53 0 00-.532-.531zm-5.843 0v-11.33c.29.3.658.517 1.062.625v10.705h-1.063zm-4.25.531v3.188h-2.125v-3.719h1.062a.53.53 0 00.531-.531V26.06a.53.53 0 00-.531-.531h-3.188a.531.531 0 00-.53.531v1.594a.531.531 0 00.53.531h1.063v3.719H17v-3.188a.53.53 0 00-.531-.531h-1.063v-1.594a.529.529 0 00-.531-.531h-1.063v-8.548a2.31 2.31 0 001.313-.792 2.29 2.29 0 001.781.84h.188a2.288 2.288 0 001.78-.84c.077.093.161.179.251.259v1.643a2.659 2.659 0 00-2.656 2.657.533.533 0 00.531.531h5.313a.529.529 0 00.53-.531 2.659 2.659 0 00-2.655-2.657v-1.11c.154.032.311.048.469.048h.166a2.305 2.305 0 001.802-.865 2.302 2.302 0 001.805.865h.102c.334 0 .664-.07.968-.21v8.71h-1.063a.53.53 0 00-.53.531v1.594h-1.063a.532.532 0 00-.532.531zm-3.72-1.593v-.532h2.126v.532h-2.125zM8.264 14.922l1.173-4.268h2.156l-.79 4.799a1.243 1.243 0 01-1.232 1.044h-.102a1.247 1.247 0 01-1.204-1.575zM8.5 17.35c.304.14.634.21.968.21h.102a2.3 2.3 0 001.805-.865 2.306 2.306 0 001.375.825v2.696H8.5V17.35zm4.677-.852a1.246 1.246 0 01-1.231-1.451l.724-4.393h2.175l-.256 4.664a1.248 1.248 0 01-1.246 1.18h-.166zm4.822-.39a1.237 1.237 0 01-.905.39h-.188a1.249 1.249 0 01-1.245-1.313l.248-4.531h2.182l.248 4.527v.004a1.233 1.233 0 01-.34.923zm1.412-.79l-.256-4.664h2.175l.724 4.393a1.248 1.248 0 01-1.231 1.45h-.166a1.248 1.248 0 01-1.246-1.179zm.776 4.367a1.597 1.597 0 011.503 1.063h-4.068a1.597 1.597 0 011.503-1.063h1.063zm5.338-3.679a1.238 1.238 0 01-.992.491h-.104a1.243 1.243 0 01-1.23-1.044l-.792-4.8h2.157l1.172 4.266v.003a1.24 1.24 0 01-.211 1.084zm-.556 11.116h.531v1.063h-.531v-1.063zm4.418-12.32a1.248 1.248 0 11-2.368.778l-1.354-4.926h2.127l1.595 4.148zM6.375 2.155h21.25v7.437H6.375V2.155zM4.749 15.957a1.23 1.23 0 01-.136-1.155l1.595-4.147h2.127L6.98 15.582a1.252 1.252 0 01-1.785.775 1.23 1.23 0 01-.447-.4zm1.626 1.524a2.304 2.304 0 001.063-.626v11.331H6.375V17.481zm4.25 14.424h-8.5v-2.657h8.5v2.657zm.531-3.719H8.5V21.28h4.25v10.625h-1.063v-3.188a.53.53 0 00-.53-.531zm2.656-1.063h.532v1.594a.53.53 0 00.531.532h1.063v2.656h-2.126v-4.782zm18.063 4.782h-8.5v-2.657h8.5v2.657z" fill="#000"/><path d="M20.719 6.405h-.577a3.195 3.195 0 00-2.61-2.611v-.577a.531.531 0 10-1.063 0v.577a3.195 3.195 0 00-2.611 2.61h-.577a.531.531 0 00-.531.532 2.127 2.127 0 002.125 2.125h4.25a2.127 2.127 0 002.125-2.125.531.531 0 00-.531-.531zM17 4.81a2.129 2.129 0 012.058 1.594h-4.116A2.129 2.129 0 0117 4.81zm2.125 3.188h-4.25a1.063 1.063 0 01-.92-.532h6.09a1.064 1.064 0 01-.92.532zm-6.08-2.745a.532.532 0 00.236-.442V3.217H12.22v1.29a2.339 2.339 0 01-.531.195V3.217h-1.063v1.485a2.337 2.337 0 01-.531-.194v-1.29H9.03V4.81a.531.531 0 00.237.442c.409.273.872.454 1.357.531V9.06h1.063V5.784a3.406 3.406 0 001.357-.53zm9.799-2.567a2.125 2.125 0 00-.532 4.183V9.06h1.063V6.869a2.125 2.125 0 00-.531-4.183zm0 3.188a1.063 1.063 0 110-2.126 1.063 1.063 0 010 2.126z" fill="#000"/></svg><svg fill="none" viewBox="0 0 11 19" id="icon-right" xmlns="http://www.w3.org/2000/svg"><path d="M2.803 18.079l7.746-7.746a1.548 1.548 0 000-2.184L2.803.403A1.548 1.548 0 00.62 2.587l6.646 6.646L.62 15.895a1.548 1.548 0 000 2.184c.604.601 1.58.601 2.184 0z" fill="#000"/></svg><svg fill="none" viewBox="0 0 21 21" id="icon-search" xmlns="http://www.w3.org/2000/svg"><ellipse cx="9.767" cy="9.66" rx="8.989" ry="8.884" stroke="#000" stroke-width="1.5" stroke-linecap="round" stroke-linejoin="round"/><path d="M16.018 16.3l3.524 3.474" stroke="#000" stroke-width="1.5" stroke-linecap="round" stroke-linejoin="round"/></svg><svg fill="none" viewBox="0 0 16 17" id="icon-star" xmlns="http://www.w3.org/2000/svg"><g clip-path="url(#bca)"><path d="M-.237 6.194a.468.468 0 01.377-.319l4.945-.72L7.297.66a.467.467 0 01.838 0l2.212 4.494 4.945.721a.468.468 0 01.26.8l-3.58 3.498.846 4.94a.47.47 0 01-.679.494l-4.423-2.332-4.423 2.332a.466.466 0 01-.678-.494l.845-4.94-3.58-3.498a.47.47 0 01-.117-.48z" fill="#000"/></g><defs><clipPath id="bca"><path fill="#fff" transform="matrix(-1 0 0 1 16 .03)" d="M0 0h16v16H0z"/></clipPath></defs></svg><svg fill="none" viewBox="0 0 15 15" id="icon-telegram" xmlns="http://www.w3.org/2000/svg"><path d="M9.318 14.33a.694.694 0 01-.616-.36l-2.041-3.858a.622.622 0 01.05-.661l3.295-4.221-4.468 3.113a.725.725 0 01-.7.047L.757 6.462a.646.646 0 01-.379-.618.653.653 0 01.449-.574L13.896.72a.719.719 0 01.723.15c.19.18.252.447.16.685l-4.816 12.35a.684.684 0 01-.607.424h-.038z" fill="#000"/></svg><svg fill="none" viewBox="0 0 20 21" id="icon-time" xmlns="http://www.w3.org/2000/svg"><path d="M10.575 1.57V.61a.611.611 0 00-1.222 0v.964C4.55 1.91.744 5.92.744 10.805c0 5.103 4.153 9.255 9.256 9.255 5.103 0 9.256-4.152 9.256-9.255 0-4.91-3.845-8.937-8.681-9.235zM10 18.837c-4.43 0-8.033-3.603-8.033-8.032 0-4.43 3.603-8.033 8.033-8.033s8.033 3.604 8.033 8.033c0 4.429-3.603 8.032-8.033 8.032z" fill="#000"/><path d="M6.863 16.352a6.39 6.39 0 01-3.234-5.547.305.305 0 10-.611 0 7.003 7.003 0 003.544 6.078.305.305 0 10.3-.531zm1.667.838a6.84 6.84 0 01-.353-.102.305.305 0 00-.186.582c.127.04.255.077.385.11a.306.306 0 00.153-.59zm9.355-12.432a.611.611 0 00.863-.866L17.162 2.31a.61.61 0 10-.863.865l1.586 1.583zm-7.31 5.933V5.806a.611.611 0 00-1.223 0v5.15c0 .168.088.328.21.443l1.789 1.671a.61.61 0 00.657.117.61.61 0 00.164-1.006l-1.597-1.49z" fill="#000"/></svg><svg fill="none" viewBox="0 0 34 35" id="icon-timer" xmlns="http://www.w3.org/2000/svg"><g clip-path="url(#bfa)" fill="#000"><path d="M31.754 12.911l.996-.996c.288-.288.447-.67.447-1.078 0-.407-.159-.79-.447-1.078l-1.14-1.14a1.514 1.514 0 00-1.078-.447c-.407 0-.79.159-1.078.447l-.996.996a12.7 12.7 0 00-4.412-1.934V6.21h.606a1.49 1.49 0 001.488-1.488v-2.07a1.49 1.49 0 00-1.488-1.489H17.8a1.49 1.49 0 00-1.488 1.489v2.07c0 .82.668 1.488 1.488 1.488h.606v1.476a12.703 12.703 0 00-4.392 1.93l-.996-.996a1.514 1.514 0 00-1.078-.447c-.407 0-.79.159-1.078.447l-1.14 1.14a1.526 1.526 0 000 2.156l.176.177H5.19a.664.664 0 000 1.328h5.193a12.713 12.713 0 00-1.215 2.552H.664a.664.664 0 000 1.328H8.79a12.748 12.748 0 00-.314 2.553H4.25a.664.664 0 000 1.328h4.265c.072.879.233 1.732.474 2.552H3.32a.664.664 0 000 1.328h6.142c1.932 4.599 6.482 7.836 11.774 7.836C28.274 32.897 34 27.171 34 20.133c0-2.679-.83-5.167-2.246-7.222zm-1.36-3.353a.192.192 0 01.138-.058c.037 0 .091.01.139.058l1.14 1.14a.192.192 0 01.058.14c0 .036-.01.09-.058.138l-.873.873c-.435-.509-.91-.983-1.418-1.418l.873-.873zM17.64 4.72V2.65a.16.16 0 01.16-.16h6.852a.16.16 0 01.16.16v2.07a.16.16 0 01-.16.16H17.8a.16.16 0 01-.16-.16zm2.095 1.488h2.983v1.246a12.835 12.835 0 00-2.983.003V6.209zM10.66 10.7l1.141-1.141a.192.192 0 01.139-.058c.037 0 .091.01.139.058l.873.873c-.51.435-.983.91-1.418 1.418l-.874-.873a.196.196 0 010-.278zm10.576 20.87C14.93 31.57 9.8 26.44 9.8 20.133S14.93 8.697 21.236 8.697s11.436 5.13 11.436 11.436-5.13 11.436-11.436 11.436z"/><path d="M25.619 14.81l-3.14 3.14a2.498 2.498 0 00-1.243-.33 2.517 2.517 0 00-2.514 2.513 2.517 2.517 0 002.514 2.514 2.516 2.516 0 002.514-2.514c0-.452-.121-.877-.331-1.244l3.139-3.139a.664.664 0 00-.94-.94zm-4.383 6.509a1.187 1.187 0 01-1.186-1.186 1.187 1.187 0 012.371 0c0 .654-.531 1.186-1.185 1.186zm0-9.796a.669.669 0 00.47-.194.67.67 0 00.194-.47.669.669 0 00-.664-.664.67.67 0 00-.47.195.668.668 0 00.47 1.133zm0 17.22a.669.669 0 00-.47.194.668.668 0 00.47 1.134.666.666 0 00.47-1.134.669.669 0 00-.47-.194zm-6.558-15.832a.669.669 0 00-.469.195.67.67 0 00-.195.47.67.67 0 00.195.47.668.668 0 00.939 0 .67.67 0 00.194-.47.67.67 0 00-.194-.47.669.669 0 00-.47-.195zm13.116 13.115a.67.67 0 00-.47.195.668.668 0 000 .939.668.668 0 001.134-.47.669.669 0 00-.664-.664zm-13.116 0a.669.669 0 00-.664.665.669.669 0 00.665.664.669.669 0 00.663-.664.669.669 0 00-.664-.665zm-2.716-6.557a.668.668 0 00-.664.664.667.667 0 00.664.664.666.666 0 00.665-.664.67.67 0 00-.195-.47.669.669 0 00-.47-.194zm19.018.194a.668.668 0 00-1.133.47.668.668 0 00.663.664.67.67 0 00.47-.195.67.67 0 00.194-.47.67.67 0 00-.195-.469zM.664 23.733a.669.669 0 00-.47.194.67.67 0 00-.194.47.67.67 0 00.195.47.67.67 0 00.47.195.669.669 0 00.468-.195.67.67 0 00.195-.47.67.67 0 00-.195-.47.668.668 0 00-.469-.194z"/><path d="M30.314 18.117a.664.664 0 00.447-.826 9.963 9.963 0 00-6.704-6.69.664.664 0 10-.376 1.274 8.576 8.576 0 015.807 5.795.664.664 0 00.826.447z"/></g><defs><clipPath id="bfa"><path fill="#fff" transform="translate(0 .03)" d="M0 0h34v34H0z"/></clipPath></defs></svg><svg fill="none" viewBox="0 0 21 17" id="icon-twitter" xmlns="http://www.w3.org/2000/svg"><path d="M20.526 2.01a8.435 8.435 0 01-2.422.652 4.196 4.196 0 001.85-2.319 8.304 8.304 0 01-2.67 1.016A4.196 4.196 0 0014.212.03a4.205 4.205 0 00-4.206 4.21c0 .325.04.65.104.964A11.954 11.954 0 011.436.799a4.177 4.177 0 00-.573 2.124c0 1.46.743 2.748 1.875 3.506a4.243 4.243 0 01-1.902-.536v.052a4.207 4.207 0 003.372 4.13 4.451 4.451 0 01-1.107.143 5.61 5.61 0 01-.795-.064 4.214 4.214 0 003.933 2.918 8.43 8.43 0 01-5.223 1.798A8.49 8.49 0 010 14.818a11.911 11.911 0 006.46 1.887c7.737 0 11.97-6.408 11.97-11.971 0-.183 0-.365-.013-.548a9.06 9.06 0 002.11-2.175z" fill="#000"/></svg><svg fill="none" viewBox="0 0 15 15" id="telegram" xmlns="http://www.w3.org/2000/svg"><path d="M9.318 14.3a.694.694 0 01-.616-.36l-2.041-3.858a.622.622 0 01.05-.66L10.005 5.2 5.538 8.314a.725.725 0 01-.7.046L.757 6.432a.646.646 0 01-.379-.618.653.653 0 01.449-.574L13.895.69a.719.719 0 01.724.15c.19.18.252.447.16.685l-4.816 12.35a.684.684 0 01-.607.424l-.038.001z" fill="#fff"/></svg></svg>