<svg width="16" height="16" fill="none" xmlns="http://www.w3.org/2000/svg"><g clip-path="url(#clip0_3197_367)"><path d="M.023 6.164a.469.469 0 01.378-.319l4.96-.72L7.58.63a.469.469 0 01.84 0l2.219 4.495 4.96.72a.469.469 0 01.26.8l-3.59 3.498.848 4.94a.469.469 0 01-.68.495L8 13.245l-4.436 2.333a.469.469 0 01-.68-.495l.847-4.94-3.59-3.498a.469.469 0 01-.118-.48z" fill="#C1C1C1" fill-opacity=".3"/></g><defs><clipPath id="clip0_3197_367"><path fill="#fff" transform="matrix(-1 0 0 1 16 0)" d="M0 0h16v16H0z"/></clipPath></defs></svg>