<svg width="21" height="20" fill="none" xmlns="http://www.w3.org/2000/svg"><path d="M1 1.03l2.08.356.963 11.34a1.79 1.79 0 001.8 1.633h10.909a1.794 1.794 0 001.785-1.528l.949-6.482a1.328 1.328 0 00-1.135-1.501c-.064-.009-14.937-.014-14.937-.014m8.961 3.653h2.773" stroke="#000" stroke-width="1.5" stroke-linecap="round" stroke-linejoin="round"/><path fill-rule="evenodd" clip-rule="evenodd" d="M5.404 17.786a.54.54 0 01.544.538.541.541 0 01-.544.538.541.541 0 01-.544-.538.54.54 0 01.544-.538zm11.281 0c.3 0 .545.24.545.538a.542.542 0 01-.545.538.541.541 0 01-.544-.538.54.54 0 01.544-.538z" fill="#000" stroke="#000" stroke-width="1.5" stroke-linecap="round" stroke-linejoin="round"/></svg>