<svg width="44" height="44" fill="none" xmlns="http://www.w3.org/2000/svg"><g clip-path="url(#clip0_669_820)" fill="#000"><path d="M31.158 14.687l-.47-1.531c-.599-1.74-2.51-2.671-4.27-2.08a3.347 3.347 0 00-2.105 2.08l-.47 1.531a8.506 8.506 0 00-.244 3.987 3.754 3.754 0 001.954 2.613l-.527 11.65c-.07.65.143 1.3.587 1.784a2.583 2.583 0 003.78 0 2.248 2.248 0 00.587-1.736l-.53-11.7a3.753 3.753 0 001.95-2.611 8.506 8.506 0 00-.242-3.987zm-1.202 3.735a2.307 2.307 0 01-1.522 1.731.724.724 0 00-.474.711l.557 12.236a.833.833 0 01-.22.657 1.142 1.142 0 01-1.594 0 .863.863 0 01-.216-.705l.553-12.188a.725.725 0 00-.474-.71 2.307 2.307 0 01-1.522-1.732 7.068 7.068 0 01.202-3.31l.47-1.532a1.908 1.908 0 013.568 0l.47 1.532a7.078 7.078 0 01.202 3.31zM19.8 10.902a.73.73 0 00-.733.725v6.223l-1.986 1.962a.72.72 0 00-.214.549l.641 12.684a.98.98 0 01-.277.739c-.401.4-1.055.403-1.46.006l-.007-.006a.98.98 0 01-.277-.739l.646-12.684a.72.72 0 00-.214-.549l-1.986-1.962v-6.223a.73.73 0 00-.733-.725.73.73 0 00-.733.725v6.523a.72.72 0 00.214.513l1.97 1.947-.625 12.365c-.067 1.35.987 2.5 2.354 2.565 1.366.066 2.528-.976 2.594-2.327a2.362 2.362 0 000-.238L18.35 20.61l1.97-1.947a.72.72 0 00.214-.513v-6.523a.73.73 0 00-.733-.725z"/><path d="M15.4 10.902a.73.73 0 00-.733.725v5.798c0 .4.328.725.733.725a.73.73 0 00.733-.724v-5.8a.73.73 0 00-.733-.724zm2.2 0a.73.73 0 00-.733.725v5.798c0 .4.328.725.733.725a.73.73 0 00.733-.724v-5.8a.73.73 0 00-.733-.724z"/><path d="M22 .03C9.85.03 0 9.765 0 21.775c0 12.009 9.85 21.744 22 21.744s22-9.735 22-21.744C43.986 9.77 34.145.043 22 .03zm0 42.04c-11.34 0-20.533-9.087-20.533-20.296C1.467 10.566 10.66 1.48 22 1.48c11.34 0 20.533 9.087 20.533 20.296C42.52 32.977 33.335 42.056 22 42.069z"/><path d="M24.38 35.38a.731.731 0 00-.829-.647l.003-.001a13.618 13.618 0 01-3.108 0 .732.732 0 00-.814.636.727.727 0 00.643.805c1.145.132 2.302.132 3.447 0a.727.727 0 00.658-.792zm8.84-22.946a.74.74 0 00-1.033-.09.72.72 0 00-.091 1.024 12.936 12.936 0 01-.778 17.648.719.719 0 00-.002 1.025.74.74 0 001.037.002 14.374 14.374 0 00.867-19.609zM17.086 9.611h-.004.004zm8.374-1.928a14.96 14.96 0 00-8.633.524.722.722 0 00.258 1.403.741.741 0 00.256-.047 13.47 13.47 0 017.773-.47.724.724 0 10.345-1.41zM12.65 30.98a12.887 12.887 0 01-3.85-9.206 12.85 12.85 0 012.523-7.674.72.72 0 00-.145-1.015.739.739 0 00-1.04.161 14.371 14.371 0 001.472 18.76.74.74 0 001.039 0 .72.72 0 000-1.026z"/></g><defs><clipPath id="clip0_669_820"><path fill="#fff" transform="translate(0 .03)" d="M0 0h44v43.489H0z"/></clipPath></defs></svg>