<svg width="16" height="17" fill="none" xmlns="http://www.w3.org/2000/svg"><g clip-path="url(#clip0_16021_147)"><path d="M-.237 6.194a.468.468 0 01.377-.319l4.945-.72L7.297.66a.467.467 0 01.838 0l2.212 4.494 4.945.721a.468.468 0 01.26.8l-3.58 3.498.846 4.94a.47.47 0 01-.679.494l-4.423-2.332-4.423 2.332a.466.466 0 01-.678-.494l.845-4.94-3.58-3.498a.47.47 0 01-.117-.48z" fill="#000"/></g><defs><clipPath id="clip0_16021_147"><path fill="#fff" transform="matrix(-1 0 0 1 16 .03)" d="M0 0h16v16H0z"/></clipPath></defs></svg>