<svg width="34" height="35" fill="none" xmlns="http://www.w3.org/2000/svg"><g clip-path="url(#clip0_669_850)" fill="#000"><path d="M31.754 12.911l.996-.996c.288-.288.447-.67.447-1.078 0-.407-.159-.79-.447-1.078l-1.14-1.14a1.514 1.514 0 00-1.078-.447c-.407 0-.79.159-1.078.447l-.996.996a12.7 12.7 0 00-4.412-1.934V6.21h.606a1.49 1.49 0 001.488-1.488v-2.07a1.49 1.49 0 00-1.488-1.489H17.8a1.49 1.49 0 00-1.488 1.489v2.07c0 .82.668 1.488 1.488 1.488h.606v1.476a12.703 12.703 0 00-4.392 1.93l-.996-.996a1.514 1.514 0 00-1.078-.447c-.407 0-.79.159-1.078.447l-1.14 1.14a1.526 1.526 0 000 2.156l.176.177H5.19a.664.664 0 000 1.328h5.193a12.713 12.713 0 00-1.215 2.552H.664a.664.664 0 000 1.328H8.79a12.748 12.748 0 00-.314 2.553H4.25a.664.664 0 000 1.328h4.265c.072.879.233 1.732.474 2.552H3.32a.664.664 0 000 1.328h6.142c1.932 4.599 6.482 7.836 11.774 7.836C28.274 32.897 34 27.171 34 20.133c0-2.679-.83-5.167-2.246-7.222zm-1.36-3.353a.192.192 0 01.138-.058c.037 0 .091.01.139.058l1.14 1.14a.192.192 0 01.058.14c0 .036-.01.09-.058.138l-.873.873c-.435-.509-.91-.983-1.418-1.418l.873-.873zM17.64 4.72V2.65a.16.16 0 01.16-.16h6.852a.16.16 0 01.16.16v2.07a.16.16 0 01-.16.16H17.8a.16.16 0 01-.16-.16zm2.095 1.488h2.983v1.246a12.835 12.835 0 00-2.983.003V6.209zM10.66 10.7l1.141-1.141a.192.192 0 01.139-.058c.037 0 .091.01.139.058l.873.873c-.51.435-.983.91-1.418 1.418l-.874-.873a.196.196 0 010-.278zm10.576 20.87C14.93 31.57 9.8 26.44 9.8 20.133S14.93 8.697 21.236 8.697s11.436 5.13 11.436 11.436-5.13 11.436-11.436 11.436z"/><path d="M25.619 14.81l-3.14 3.14a2.498 2.498 0 00-1.243-.33 2.517 2.517 0 00-2.514 2.513 2.517 2.517 0 002.514 2.514 2.516 2.516 0 002.514-2.514c0-.452-.121-.877-.331-1.244l3.139-3.139a.664.664 0 00-.94-.94zm-4.383 6.509a1.187 1.187 0 01-1.186-1.186 1.187 1.187 0 012.371 0c0 .654-.531 1.186-1.185 1.186zm0-9.796a.669.669 0 00.47-.194.67.67 0 00.194-.47.669.669 0 00-.664-.664.67.67 0 00-.47.195.668.668 0 00.47 1.133zm0 17.22a.669.669 0 00-.47.194.668.668 0 00.47 1.134.666.666 0 00.47-1.134.669.669 0 00-.47-.194zm-6.558-15.832a.669.669 0 00-.469.195.67.67 0 00-.195.47.67.67 0 00.195.47.668.668 0 00.939 0 .67.67 0 00.194-.47.67.67 0 00-.194-.47.669.669 0 00-.47-.195zm13.116 13.115a.67.67 0 00-.47.195.668.668 0 000 .939.668.668 0 001.134-.47.669.669 0 00-.664-.664zm-13.116 0a.669.669 0 00-.664.665.669.669 0 00.665.664.669.669 0 00.663-.664.669.669 0 00-.664-.665zm-2.716-6.557a.668.668 0 00-.664.664.667.667 0 00.664.664.666.666 0 00.665-.664.67.67 0 00-.195-.47.669.669 0 00-.47-.194zm19.018.194a.668.668 0 00-1.133.47.668.668 0 00.663.664.67.67 0 00.47-.195.67.67 0 00.194-.47.67.67 0 00-.195-.469zM.664 23.733a.669.669 0 00-.47.194.67.67 0 00-.194.47.67.67 0 00.195.47.67.67 0 00.47.195.669.669 0 00.468-.195.67.67 0 00.195-.47.67.67 0 00-.195-.47.668.668 0 00-.469-.194z"/><path d="M30.314 18.117a.664.664 0 00.447-.826 9.963 9.963 0 00-6.704-6.69.664.664 0 10-.376 1.274 8.576 8.576 0 015.807 5.795.664.664 0 00.826.447z"/></g><defs><clipPath id="clip0_669_850"><path fill="#fff" transform="translate(0 .03)" d="M0 0h34v34H0z"/></clipPath></defs></svg>