<svg width="20" height="21" fill="none" xmlns="http://www.w3.org/2000/svg"><path d="M10.575 1.57V.61a.611.611 0 00-1.222 0v.964C4.55 1.91.744 5.92.744 10.805c0 5.103 4.153 9.255 9.256 9.255 5.103 0 9.256-4.152 9.256-9.255 0-4.91-3.845-8.937-8.681-9.235zM10 18.837c-4.43 0-8.033-3.603-8.033-8.032 0-4.43 3.603-8.033 8.033-8.033s8.033 3.604 8.033 8.033c0 4.429-3.603 8.032-8.033 8.032z" fill="#000"/><path d="M6.863 16.352a6.39 6.39 0 01-3.234-5.547.305.305 0 10-.611 0 7.003 7.003 0 003.544 6.078.305.305 0 10.3-.531zm1.667.838a6.84 6.84 0 01-.353-.102.305.305 0 00-.186.582c.127.04.255.077.385.11a.306.306 0 00.153-.59zm9.355-12.432a.611.611 0 00.863-.866L17.162 2.31a.61.61 0 10-.863.865l1.586 1.583zm-7.31 5.933V5.806a.611.611 0 00-1.223 0v5.15c0 .168.088.328.21.443l1.789 1.671a.61.61 0 00.657.117.61.61 0 00.164-1.006l-1.597-1.49z" fill="#000"/></svg>