<svg width="21" height="17" fill="none" xmlns="http://www.w3.org/2000/svg"><path d="M20.526 2.01a8.435 8.435 0 01-2.422.652 4.196 4.196 0 001.85-2.319 8.304 8.304 0 01-2.67 1.016A4.196 4.196 0 0014.212.03a4.205 4.205 0 00-4.206 4.21c0 .325.04.65.104.964A11.954 11.954 0 011.436.799a4.177 4.177 0 00-.573 2.124c0 1.46.743 2.748 1.875 3.506a4.243 4.243 0 01-1.902-.536v.052a4.207 4.207 0 003.372 4.13 4.451 4.451 0 01-1.107.143 5.61 5.61 0 01-.795-.064 4.214 4.214 0 003.933 2.918 8.43 8.43 0 01-5.223 1.798A8.49 8.49 0 010 14.818a11.911 11.911 0 006.46 1.887c7.737 0 11.97-6.408 11.97-11.971 0-.183 0-.365-.013-.548a9.06 9.06 0 002.11-2.175z" fill="#000"/></svg>