<svg width="24" height="20" fill="none" xmlns="http://www.w3.org/2000/svg"><path d="M18.783 9.595c-1.276.116-2.32.609-3.13 1.478-.812.87-1.218 1.971-1.218 3.305 0 1.449.435 2.637 1.304 3.565.87.87 1.971 1.304 3.305 1.304 1.507 0 2.724-.55 3.652-1.652.87-1.101 1.304-2.812 1.304-5.13C24 8 22.522 4.145 19.565.899c-.58-.58-1.246-.87-2-.87-.638 0-1.188.233-1.652.696-.464.406-.696.899-.696 1.479 0 .637.232 1.188.696 1.652 1.507 1.565 2.464 3.478 2.87 5.739zm-14.435 0c-1.276.116-2.319.609-3.13 1.478C.405 11.943 0 13.044 0 14.378c0 1.449.435 2.637 1.304 3.565.87.87 1.971 1.304 3.305 1.304 1.507 0 2.724-.55 3.652-1.652.87-1.101 1.304-2.812 1.304-5.13C9.565 8 8.087 4.145 5.13.899c-.58-.58-1.246-.87-2-.87-.637 0-1.188.233-1.652.696-.464.406-.695.899-.695 1.479 0 .637.231 1.188.695 1.652 1.508 1.565 2.464 3.478 2.87 5.739z" fill="#000"/></svg>