<svg width="44" height="45" fill="none" xmlns="http://www.w3.org/2000/svg"><g clip-path="url(#clip0_669_808)"><g clip-path="url(#clip1_669_808)" fill="#000"><path d="M15.132 13.597h2.124a1 1 0 011 1v1.464a.645.645 0 101.29 0v-1.464a2.292 2.292 0 00-2.29-2.29h-2.124a.984.984 0 010-1.966h4.711a2.275 2.275 0 002.272-2.272 2.275 2.275 0 00-2.272-2.272h-3.77a.645.645 0 000 1.29h3.77a.984.984 0 010 1.965h-4.711a2.275 2.275 0 00-2.273 2.272 2.275 2.275 0 002.273 2.273zm-7.743 4.325h2.108c.544 0 .987.443.987.988v1.453a.644.644 0 101.29 0V18.91a2.279 2.279 0 00-2.277-2.277H7.39a.972.972 0 010-1.94h2.465a.645.645 0 000-1.29H7.389a2.262 2.262 0 00-2.26 2.26 2.262 2.262 0 002.26 2.26zm18.263 8.92a.645.645 0 100-1.289.645.645 0 000 1.29zm3.18 1.461a.645.645 0 100-1.289.645.645 0 000 1.29zm1.891 2.235a.645.645 0 100-1.29.645.645 0 000 1.29zm-2.664-5.243a.644.644 0 100-1.289.644.644 0 000 1.29zm-2.149 5.672a.645.645 0 100-1.289.645.645 0 000 1.29z"/><path d="M42.911 22.84h-1.828l.904-1.867A2.507 2.507 0 0044 18.52a2.506 2.506 0 00-2.102-2.47c-1.315-2.37-3.885-4.149-7.001-4.86v-.048a.645.645 0 00-1.264-.176 13.82 13.82 0 00-1.197-.1.644.644 0 00-1.163 0 14.2 14.2 0 00-1.197.1.644.644 0 00-1.264.176v.049c-3.116.71-5.686 2.49-7.001 4.859a2.506 2.506 0 00-2.093 2.685c-2.975.277-5.649 1.52-7.655 3.385h-4.05a.909.909 0 00-.69.319H5.43A2.118 2.118 0 003.473 21.1a2.106 2.106 0 00-2.082 2.397 2.107 2.107 0 00-1.066 3.104 2.106 2.106 0 001.778 3.229c.878 0 1.648-.554 1.958-1.337h1.704a.91.91 0 00.586.623l2.02.686a10.898 10.898 0 00-.002 1.223c-.316.076-.61.207-.873.383a2.7 2.7 0 00-1.51-.46 2.721 2.721 0 00-2.717 2.719l.002.068h-.754a1.08 1.08 0 00-.985.624 1.08 1.08 0 00.144 1.156l1.934 2.35c.207.252.514.397.84.397h27.26a.644.644 0 100-1.29H4.545l-1.604-1.948h39.544l-1.603 1.949h-6.164a.644.644 0 100 1.289h6.258c.327 0 .633-.145.84-.397l1.934-2.35a1.08 1.08 0 00.144-1.156 1.079 1.079 0 00-.984-.624h-.638a5.41 5.41 0 00.64-3.672.645.645 0 00-.52-.519 5.409 5.409 0 00-5.008 1.731c-.37-.2-.79-.316-1.237-.325v-1.226h.688a1.98 1.98 0 001.977-1.977v-.865h4.1c.6 0 1.088-.488 1.088-1.089V23.93c0-.6-.488-1.088-1.089-1.088zM6.291 33.737H4.56l-.002-.068a1.43 1.43 0 012.053-1.284 2.7 2.7 0 00-.323 1.284c0 .023.002.045.003.068zm32.225-1.785a4.116 4.116 0 013.184-1.194 4.118 4.118 0 01-1.005 2.979h-1.063l.881-.88a.644.644 0 10-.911-.912l-.914.913a2.71 2.71 0 00-.348-.717c.057-.065.115-.127.176-.189zm-13.013-17.98a10.719 10.719 0 013.309-1.452v.663a.644.644 0 101.29 0v-.919c.364-.052.735-.086 1.108-.105v1.024a.644.644 0 101.289 0V12.16c.373.02.743.053 1.109.105v.92a.644.644 0 101.289 0v-.664c1.206.308 2.333.799 3.309 1.452.95.637 1.724 1.406 2.288 2.256a2.526 2.526 0 00-.604.375 2.506 2.506 0 00-1.607-.587c-.595 0-1.163.214-1.607.587a2.506 2.506 0 00-1.607-.587c-.595 0-1.163.214-1.607.587a2.506 2.506 0 00-1.608-.587c-.594 0-1.162.214-1.607.587a2.506 2.506 0 00-1.607-.587c-.594 0-1.162.214-1.607.587a2.506 2.506 0 00-1.607-.587c-.594 0-1.162.214-1.607.587a2.524 2.524 0 00-.605-.375c.565-.85 1.339-1.62 2.29-2.256zm-3.291 3.333c.43 0 .832.233 1.05.607a.645.645 0 001.114 0 1.22 1.22 0 011.05-.607c.43 0 .832.233 1.05.607a.644.644 0 001.115 0 1.219 1.219 0 011.05-.607c.43 0 .832.233 1.049.607a.644.644 0 001.115 0 1.22 1.22 0 011.05-.607c.43 0 .832.233 1.049.607a.644.644 0 001.115 0 1.22 1.22 0 011.05-.607c.43 0 .832.233 1.05.607a.645.645 0 001.114 0 1.22 1.22 0 011.05-.607c.43 0 .832.233 1.05.607a.644.644 0 001.114 0c.218-.374.62-.607 1.05-.607a1.215 1.215 0 010 2.427c-.43 0-.832-.232-1.05-.607a.645.645 0 00-1.114 0c-.218.375-.62.607-1.05.607-.43 0-.833-.232-1.05-.607a.645.645 0 00-1.115 0c-.217.375-.62.607-1.05.607-.43 0-.832-.232-1.049-.607a.644.644 0 00-1.115 0c-.217.375-.62.607-1.05.607-.43 0-.832-.232-1.05-.607a.645.645 0 00-1.114 0c-.218.375-.62.607-1.05.607-.43 0-.832-.232-1.05-.607a.645.645 0 00-1.114 0 1.22 1.22 0 01-.54.493 13.364 13.364 0 00-4.927-.942 1.215 1.215 0 011.202-1.37v-.001zm-13.82 6.103h2.472a11.78 11.78 0 00-.712.984h-1.76v-.984zm-2.66 3.796H3.558a.645.645 0 00-.643.592.818.818 0 01-.81.745.815.815 0 01-.519-1.442.644.644 0 000-.994.813.813 0 111.33-.697.645.645 0 00.642.592h2.176v1.204zm.221-2.493H4.061a2.129 2.129 0 00-1.36-1.248.813.813 0 111.583-.327.645.645 0 00.642.59h2.177v.666h-.46a.909.909 0 00-.69.319zm4.48 9.025H7.58a1.43 1.43 0 011.427-1.497 1.43 1.43 0 011.428 1.429l-.002.068zm19.879 0h-2.244l-.002-.068a1.43 1.43 0 012.439-1.01 2.703 2.703 0 00-.196 1.01c0 .023.002.045.003.068zm-.817-2.786a2.721 2.721 0 00-2.719 2.718c0 .023.002.045.003.068H11.722l.002-.068c0-1.273-.88-2.344-2.063-2.638a9.739 9.739 0 01-.016-.795l6.592 2.239a4.113 4.113 0 003.753-.556 4.106 4.106 0 001.732-3.375c0-.484-.083-.96-.247-1.413a.645.645 0 10-1.212.44c.113.311.17.639.17.973a2.83 2.83 0 01-1.195 2.326 2.83 2.83 0 01-2.587.384l-9.629-3.27v-2.302h10.55c.323 0 .641.054.946.161a.644.644 0 10.427-1.216 4.144 4.144 0 00-1.373-.234h-5.845c2.056-2.677 5.438-4.428 9.256-4.428 6.253 0 11.34 4.696 11.34 10.468 0 .206-.006.411-.02.616a2.72 2.72 0 00-1.042.556 2.705 2.705 0 00-1.766-.654zm4.959 2.786h-2.853a1.43 1.43 0 011.427-1.497c.787 0 1.428.64 1.428 1.429 0 .023 0 .045-.002.068zm.404-2.486c-.102.052-.202.11-.297.175a2.704 2.704 0 00-.964-.414c.01-.192.016-.385.016-.579 0-.237-.01-.473-.025-.707h1.27v1.524zm2.665 2.418c0 .023-.002.045-.003.068h-1.777l.002-.068a2.7 2.7 0 00-.313-1.266 1.43 1.43 0 012.09 1.266zm0-5.92c0 .38-.309.688-.688.688h-3.407a10.96 10.96 0 00-.404-1.553h4.499v.865zm5.188-2.154H32.493a11.526 11.526 0 00-.853-1.464h2.735a.645.645 0 000-1.29h-3.756a12.417 12.417 0 00-2.077-1.82l.098.001c.595 0 1.162-.214 1.607-.587a2.506 2.506 0 001.607.587c.595 0 1.163-.214 1.608-.587a2.506 2.506 0 001.607.587c.594 0 1.162-.214 1.607-.587a2.506 2.506 0 001.607.587c.594 0 1.162-.214 1.607-.587.215.18.459.323.72.423l-.96 1.984h-2.267a.644.644 0 100 1.289h5.328v1.464z"/></g></g><defs><clipPath id="clip0_669_808"><path fill="#fff" transform="translate(0 .03)" d="M0 0h44v44H0z"/></clipPath><clipPath id="clip1_669_808"><path fill="#fff" transform="translate(0 .03)" d="M0 0h44v44H0z"/></clipPath></defs></svg>