<svg width="44" height="45" fill="none" xmlns="http://www.w3.org/2000/svg"><g clip-path="url(#clip0_669_785)" fill="#000"><path d="M41.8 6.63h-1.467V5.163a2.2 2.2 0 00-2.2-2.2h-1.747L35.326.841A1.457 1.457 0 0034.012.03H33c-.81 0-1.467.656-1.467 1.466v1.467h-8.066a2.2 2.2 0 00-2.2 2.2V6.63H19.8a2.2 2.2 0 00-2.2 2.2v1.466c0 .81.657 1.467 1.467 1.467h.077l.858 7.577-3.533-.83a11.105 11.105 0 00-.576-.814l-1.247-5.365a.733.733 0 00-.713-.568H9.72C7.73 10.011 5.382 9.219 3.61 9.74L2.532 8.567A1.448 1.448 0 00.928 8.2c-.56.216-.93.755-.928 1.356v32.288a2.188 2.188 0 002.185 2.186h35.948c.373 0 .686-.28.728-.65l3.593-31.617h.08c.81 0 1.466-.657 1.466-1.467V8.83a2.2 2.2 0 00-2.2-2.2zM33 1.496h1.013l.734 1.467H33V1.496zM22.733 5.163c0-.405.329-.733.734-.733h14.666c.405 0 .734.328.734.733V6.63H22.733V5.163zm-2.053 15.84l.046.009.593.14.397 4.162a6.758 6.758 0 00-3.94-1.242 6.28 6.28 0 00-.411-3.848l3.315.779zm1.433 6.486l.01.008c.265.246.517.506.755.78a8.686 8.686 0 011.876 3.386c.124.438.188.89.19 1.345l-6.85-7.47c1.524.17 2.943.86 4.019 1.951zm-7.728-9.32v-.001c1.583 1.819 2.32 4.003 1.97 5.471l-7.463-8.136c1.505-.337 3.795.72 5.493 2.666zm-1.038-4.94l.586 2.498a9.347 9.347 0 00-1.913-1.155 11.565 11.565 0 00-.928-1.342h2.255zm-3.687.546h.003c.06.07.11.147.17.22a3.99 3.99 0 00-2.012.338l-3.015-3.287c1.474.021 3.398 1.058 4.854 2.73zm21.077 28.357a.717.717 0 01-.656.431H2.185a.719.719 0 01-.718-.719l-.014-32.28 14.72 16.047v.004l8.644 9.424.01.011 4.74 5.172c.018.021.035.044.055.065l.983 1.072a.716.716 0 01.132.773zm-4.54-7.757a4.61 4.61 0 00.203-1.352c.385.325.744.68 1.074 1.061.41.468.773.975 1.086 1.512.428.72.73 1.508.895 2.33l-3.257-3.551zm11.281 8.188h-5.342c.275-.76.1-1.61-.45-2.2l-.74-.807a6.691 6.691 0 00-.571-3.593h7.854l-.75 6.6zm.917-8.067h-8.8a11.218 11.218 0 00-1.009-1.374 10.687 10.687 0 00-2.512-2.136 10.145 10.145 0 00-2.09-3.676c-.22-.25-.44-.482-.671-.706l-.58-6.11a.733.733 0 00-.56-.645l-.65-.154-.154-1.332h18.86l-1.834 16.133zm2-17.6H21.203l-.58-5.133H40.98l-.583 5.133zm2.138-6.6H19.067V8.83c0-.405.328-.734.733-.734h22c.405 0 .733.329.733.734v1.466z"/><path d="M31.1 32.297c.042 0 .083-.006.124-.008.011 0 .023.008.034.008a.692.692 0 00.109-.016 3.967 3.967 0 002.899-1.568 5.101 5.101 0 00.714-4.475c-.102-.38-.195-.752-.285-1.112-.572-2.293-1.119-4.456-3.435-4.553-.024 0-.046-.005-.07-.005-.023 0-.057-.005-.09-.005-2.591 0-4.7 2.632-4.7 5.867s2.109 5.867 4.7 5.867zm.568-10.157c.758.298 1.092 1.291 1.604 3.34.092.368.187.752.293 1.141a3.656 3.656 0 01-.464 3.2 2.59 2.59 0 01-.876.734 10.656 10.656 0 00-.733-3.68c-.073-.23-.147-.45-.211-.66-.427-1.389.073-3.188.387-4.075zm-1.576.11a8.05 8.05 0 00-.212 4.393c.068.22.143.448.22.685.367 1.12.807 2.472.627 3.468-1.607-.25-2.86-2.112-2.86-4.366 0-1.947.935-3.6 2.225-4.18zM3.881 38.593l-.518.518A.733.733 0 104.4 40.148l.518-.518a.733.733 0 00-1.037-1.037zm7.012-4.937a.734.734 0 00-1.038-1.038l-.518.519a.733.733 0 101.037 1.038l.519-.519zM4.4 31.778l-.519.519a.733.733 0 101.037 1.036l.519-.518A.733.733 0 004.4 31.778zm0-5.133l-.519.518A.733.733 0 104.918 28.2l.519-.518A.733.733 0 004.4 26.645zM11 38.593l-.518.518a.733.733 0 101.036 1.037l.519-.518A.733.733 0 0011 38.593zm5.348 0l-.518.518a.734.734 0 101.037 1.037l.518-.518a.733.733 0 00-1.037-1.037z"/></g><defs><clipPath id="clip0_669_785"><path fill="#fff" transform="translate(0 .03)" d="M0 0h44v44H0z"/></clipPath></defs></svg>