<svg width="34" height="35" fill="none" xmlns="http://www.w3.org/2000/svg"><path d="M32.406 28.186h-3.718V17.514a2.31 2.31 0 001.69-3.093l-1.69-4.396V1.624a.531.531 0 00-.532-.532H5.844a.531.531 0 00-.532.532v8.4l-1.69 4.397a2.31 2.31 0 001.69 3.093v10.672H1.595a.531.531 0 00-.532.531v3.719a.532.532 0 00.532.531h30.812a.532.532 0 00.532-.531v-3.719a.53.53 0 00-.532-.531zm-5.843 0v-11.33c.29.3.658.517 1.062.625v10.705h-1.063zm-4.25.531v3.188h-2.125v-3.719h1.062a.53.53 0 00.531-.531V26.06a.53.53 0 00-.531-.531h-3.188a.531.531 0 00-.53.531v1.594a.531.531 0 00.53.531h1.063v3.719H17v-3.188a.53.53 0 00-.531-.531h-1.063v-1.594a.529.529 0 00-.531-.531h-1.063v-8.548a2.31 2.31 0 001.313-.792 2.29 2.29 0 001.781.84h.188a2.288 2.288 0 001.78-.84c.077.093.161.179.251.259v1.643a2.659 2.659 0 00-2.656 2.657.533.533 0 00.531.531h5.313a.529.529 0 00.53-.531 2.659 2.659 0 00-2.655-2.657v-1.11c.154.032.311.048.469.048h.166a2.305 2.305 0 001.802-.865 2.302 2.302 0 001.805.865h.102c.334 0 .664-.07.968-.21v8.71h-1.063a.53.53 0 00-.53.531v1.594h-1.063a.532.532 0 00-.532.531zm-3.72-1.593v-.532h2.126v.532h-2.125zM8.264 14.922l1.173-4.268h2.156l-.79 4.799a1.243 1.243 0 01-1.232 1.044h-.102a1.247 1.247 0 01-1.204-1.575zM8.5 17.35c.304.14.634.21.968.21h.102a2.3 2.3 0 001.805-.865 2.306 2.306 0 001.375.825v2.696H8.5V17.35zm4.677-.852a1.246 1.246 0 01-1.231-1.451l.724-4.393h2.175l-.256 4.664a1.248 1.248 0 01-1.246 1.18h-.166zm4.822-.39a1.237 1.237 0 01-.905.39h-.188a1.249 1.249 0 01-1.245-1.313l.248-4.531h2.182l.248 4.527v.004a1.233 1.233 0 01-.34.923zm1.412-.79l-.256-4.664h2.175l.724 4.393a1.248 1.248 0 01-1.231 1.45h-.166a1.248 1.248 0 01-1.246-1.179zm.776 4.367a1.597 1.597 0 011.503 1.063h-4.068a1.597 1.597 0 011.503-1.063h1.063zm5.338-3.679a1.238 1.238 0 01-.992.491h-.104a1.243 1.243 0 01-1.23-1.044l-.792-4.8h2.157l1.172 4.266v.003a1.24 1.24 0 01-.211 1.084zm-.556 11.116h.531v1.063h-.531v-1.063zm4.418-12.32a1.248 1.248 0 11-2.368.778l-1.354-4.926h2.127l1.595 4.148zM6.375 2.155h21.25v7.437H6.375V2.155zM4.749 15.957a1.23 1.23 0 01-.136-1.155l1.595-4.147h2.127L6.98 15.582a1.252 1.252 0 01-1.785.775 1.23 1.23 0 01-.447-.4zm1.626 1.524a2.304 2.304 0 001.063-.626v11.331H6.375V17.481zm4.25 14.424h-8.5v-2.657h8.5v2.657zm.531-3.719H8.5V21.28h4.25v10.625h-1.063v-3.188a.53.53 0 00-.53-.531zm2.656-1.063h.532v1.594a.53.53 0 00.531.532h1.063v2.656h-2.126v-4.782zm18.063 4.782h-8.5v-2.657h8.5v2.657z" fill="#000"/><path d="M20.719 6.405h-.577a3.195 3.195 0 00-2.61-2.611v-.577a.531.531 0 10-1.063 0v.577a3.195 3.195 0 00-2.611 2.61h-.577a.531.531 0 00-.531.532 2.127 2.127 0 002.125 2.125h4.25a2.127 2.127 0 002.125-2.125.531.531 0 00-.531-.531zM17 4.81a2.129 2.129 0 012.058 1.594h-4.116A2.129 2.129 0 0117 4.81zm2.125 3.188h-4.25a1.063 1.063 0 01-.92-.532h6.09a1.064 1.064 0 01-.92.532zm-6.08-2.745a.532.532 0 00.236-.442V3.217H12.22v1.29a2.339 2.339 0 01-.531.195V3.217h-1.063v1.485a2.337 2.337 0 01-.531-.194v-1.29H9.03V4.81a.531.531 0 00.237.442c.409.273.872.454 1.357.531V9.06h1.063V5.784a3.406 3.406 0 001.357-.53zm9.799-2.567a2.125 2.125 0 00-.532 4.183V9.06h1.063V6.869a2.125 2.125 0 00-.531-4.183zm0 3.188a1.063 1.063 0 110-2.126 1.063 1.063 0 010 2.126z" fill="#000"/></svg>