<svg width="20" height="20" fill="none" xmlns="http://www.w3.org/2000/svg"><path d="M9.748 6.528A3.258 3.258 0 006.496 9.78a3.258 3.258 0 003.252 3.251 3.258 3.258 0 003.25-3.251 3.258 3.258 0 00-3.25-3.252zm9.751 3.252c0-1.347.013-2.68-.063-4.025-.076-1.56-.432-2.946-1.573-4.088C16.719.523 15.336.17 13.775.094 12.428.018 11.094.03 9.75.03 8.404.03 7.07.018 5.725.094 4.165.17 2.78.526 1.637 1.667.493 2.811.14 4.194.064 5.755-.01 7.102.001 8.435.001 9.78c0 1.344-.012 2.68.063 4.024.076 1.561.432 2.947 1.573 4.088 1.144 1.144 2.527 1.498 4.088 1.574 1.347.075 2.681.063 4.025.063 1.346 0 2.68.012 4.025-.063 1.56-.076 2.946-.432 4.088-1.574 1.144-1.144 1.497-2.527 1.573-4.088.078-1.344.063-2.678.063-4.024zm-9.751 5.003A4.996 4.996 0 014.745 9.78a4.996 4.996 0 015.003-5.003A4.996 4.996 0 0114.75 9.78a4.996 4.996 0 01-5.002 5.003zm5.207-9.042a1.167 1.167 0 01-1.168-1.169c0-.646.522-1.168 1.168-1.168a1.167 1.167 0 01.827 1.995 1.167 1.167 0 01-.827.342z" fill="#000"/></svg>