<svg width="34" height="34" fill="none" xmlns="http://www.w3.org/2000/svg"><path d="M6.518 24.499l.407.97c.288-.118.587-.205.893-.26l-.19-1.034a5.49 5.49 0 00-1.11.324zm-2.791 2.606l.956.458a4.322 4.322 0 011.46-1.676l-.6-.867a5.378 5.378 0 00-1.816 2.085z" fill="#000"/><path d="M32.938 26.81c0-.905-.337-1.777-.948-2.45l-.791.7c.314.346.529.769.623 1.225h-3.666a.536.536 0 00-.442.233l-1.967 2.917h-1.31V27.86a3.658 3.658 0 011.09-2.598 3.746 3.746 0 012.63-1.078h1.062c.522 0 1.033.151 1.468.437l.588-.874a3.723 3.723 0 00-1.525-.575v-1.613a.522.522 0 00-.156-.372.535.535 0 00-.375-.153 2.14 2.14 0 01-1.502-.616 2.09 2.09 0 01-.623-1.485v-2.1h1.593a.534.534 0 00.376-.154.522.522 0 00.156-.371v-3.676a.522.522 0 00-.156-.371.535.535 0 00-.375-.154h-.938c-.221 0-.442.03-.656.09v-.615a.521.521 0 00-.117-.328L25.24 9.106a1.82 1.82 0 00-.43-2.365 1.873 1.873 0 00-2.43.077 1.822 1.822 0 00-.274 2.388 1.86 1.86 0 001.06.74c.432.113.89.068 1.291-.126l1.575 1.946v.663l-2.335-.77a1.448 1.448 0 00-.476-.077h-4.382l-2.522-2.908A1.559 1.559 0 0017 7.382V7.18l.769-.38a.53.53 0 00.276-.335.518.518 0 00-.072-.426l-.872-1.294a.532.532 0 00.309-.18.52.52 0 00.121-.335c0-.835-.337-1.636-.934-2.227a3.21 3.21 0 00-2.253-.923c-1 0-1.927.284-2.616 1.036a3.123 3.123 0 00-.808 2.427l.113 1.124c.048.484.282.931.655 1.25v9.915c0 .369.098.731.285 1.05h-.817c-.18 0-.36.03-.531.09v-6.916c0-.418-.168-.818-.467-1.113a1.605 1.605 0 00-1.127-.462H2.656a1.6 1.6 0 00-1.126.462 1.568 1.568 0 00-.468 1.113v2.625h1.063v-1.05h7.438v5.251H2.125v-3.15H1.062v4.287c0 .246.088.484.247.673.16.189.381.316.626.36l4.971.894v1.232a7.59 7.59 0 00-1.314.43H2.656a.534.534 0 00-.375.154.522.522 0 00-.156.371v2.492a7.393 7.393 0 00-1.063 3.809c0 .14.056.273.156.371.1.099.235.154.376.154h2.435a4.21 4.21 0 001.564 1.908 4.285 4.285 0 004.752 0 4.21 4.21 0 001.564-1.908h8.932a2.687 2.687 0 001.966-.86l.568-.617v1.477a.531.531 0 00.531.525h1.101c.468.8 1.19 1.427 2.054 1.78a4.296 4.296 0 002.727.177 4.252 4.252 0 002.271-1.5 4.17 4.17 0 00.705-3.745.524.524 0 00.173-.387zM22.843 8.17a.782.782 0 01.492-.729.806.806 0 01.868.171.786.786 0 01.173.859.803.803 0 01-1.3.255.784.784 0 01-.233-.557zm-7.6 18.64a1.977 1.977 0 01-1.387-.57 1.93 1.93 0 01-.576-1.37c0-.515.132-.998.48-1.394.31-.353.737-.584 1.205-.65a2.377 2.377 0 001.454-.784c.374-.425.58-.97.58-1.533a.518.518 0 00-.156-.372 1.559 1.559 0 00.065-1.204h1.443l-2.332 5.991a1.208 1.208 0 00-.082.453v1.433h-.694zM17 25.76h2.656a.535.535 0 01.508.372.52.52 0 01-.213.59 1.076 1.076 0 01-.424.088H17v-1.05zm4.123-.093a1.582 1.582 0 00-.484-.622 1.608 1.608 0 00-.727-.315l2.2-5.236a3.03 3.03 0 00-.284-2.874 3.085 3.085 0 00-1.116-1 3.127 3.127 0 00-1.46-.362H17v-.833l.156.154a.533.533 0 00.375.154h5.404a1.557 1.557 0 00.201 1.434 1.607 1.607 0 001.301.666h.002a2.591 2.591 0 00-.533 1.575v4.074c0 .278-.112.545-.311.742l-2.472 2.444zm3.314-9.884a.535.535 0 01-.49-.324.52.52 0 01.115-.572.533.533 0 01.907.37c0 .14-.056.273-.156.372a.535.535 0 01-.375.154zm3.72-2.626v2.626h-1.063V13.32a1.41 1.41 0 01.656-.164h.406zm-2.126 2.1a1.56 1.56 0 00-.673-1.286 1.603 1.603 0 00-1.452-.198v-.937l2.125.7v1.722zm-7.437-2.625h4.25v1.05H17.75l-3.032-2.996-.75.742 1.969 1.947v1.883H12.75V8.957h2.412l3.028 3.492a.53.53 0 00.404.183zm-6.078-9.81c.485-.53 1.13-.691 1.828-.691.47 0 .928.155 1.3.44.373.285.64.684.757 1.135h-2.057a.534.534 0 00-.376.154.522.522 0 00-.155.371v1.247a.848.848 0 01-.24.586.868.868 0 01-1.482-.5l-.114-1.124a2.054 2.054 0 01.539-1.618zm.433 4.56c.51-.001 1-.202 1.361-.559.361-.356.564-.84.565-1.345v-.722h1.063a.52.52 0 00.089.291l.728 1.08-.524.26a.53.53 0 00-.294.47v.524c0 .14-.056.273-.155.372a.535.535 0 01-.376.154H12.75V7.37a1.9 1.9 0 00.2.01zm-.199 9.451v-.525h6.501c.335 0 .665.082.96.238.296.156.547.382.733.657a1.997 1.997 0 01.187 1.889l-2.36 5.617h-1.529l2.379-6.112a.52.52 0 00-.249-.653.536.536 0 00-.247-.06h-5.313a1.07 1.07 0 01-.75-.309 1.045 1.045 0 01-.312-.742zm-1.594 2.1h4.25c.141 0 .276.056.376.154a.522.522 0 01-.376.896h-4.25a.534.534 0 01-.375-.153.522.522 0 01.375-.897zm-9.031-7.35v-.526c0-.14.056-.273.156-.371a.535.535 0 01.375-.154h6.375c.141 0 .276.056.376.154.1.098.155.232.155.371v.525H2.125zm0 7.35h7.438v1.05H7.485l-5.36-.963v-.087zm1.72 4.726c-.231.185-.45.384-.658.594v-.594h.657zm4.124 7.876a3.24 3.24 0 01-1.592-.425 3.193 3.193 0 01-1.168-1.15h1.356a2.136 2.136 0 002.808 0h1.356a3.192 3.192 0 01-1.169 1.15 3.24 3.24 0 01-1.591.425zm14.051-3.14a1.595 1.595 0 01-1.18.515H2.148a6.358 6.358 0 011.592-3.701 6.487 6.487 0 013.513-2.03 2.01 2.01 0 01.418-.045h3.486v-1.05H7.97v-1.05h7.856a1.315 1.315 0 01-1.01.753 3.04 3.04 0 00-1.857 1c-.514.586-.74 1.318-.74 2.083 0 .711.258 1.4.726 1.94H8.5v1.05h11.027a2.176 2.176 0 001.503-.616l3.316-3.277c.398-.395.621-.929.623-1.485v-4.074c0-.325.102-.643.293-.909.19-.266.459-.467.77-.576v2.01c0 .745.267 1.465.753 2.033a3.2 3.2 0 001.902 1.074v1.094c-.33 0-.667-.02-.995.023a4.82 4.82 0 00-2.683 1.15 4.727 4.727 0 00-1.507 2.476l-1.482 1.612zm6.42-1.06h.027l.642.633a.588.588 0 01.074.744.595.595 0 01-.612.25.597.597 0 01-.305-.16l-.489-.484.663-.983zm.247 4.2a3.22 3.22 0 01-1.332-.291 3.2 3.2 0 01-1.09-.814.528.528 0 00.208-.179l.46-.682a2.137 2.137 0 002.382.823 2.123 2.123 0 001.083-.76 2.083 2.083 0 00.129-2.297h1.166a3.119 3.119 0 01-.403 2.868 3.179 3.179 0 01-1.137.98 3.22 3.22 0 01-1.465.352z" fill="#000"/><path d="M4.25 13.682H3.187v3.15H4.25v-3.15z" fill="#000"/></svg>