<svg width="24" height="20" fill="none" xmlns="http://www.w3.org/2000/svg"><path d="M5.217 9.595c1.276.116 2.32.609 3.13 1.478.812.87 1.218 1.971 1.218 3.305 0 1.449-.435 2.637-1.304 3.565-.87.87-1.971 1.304-3.304 1.304-1.508 0-2.725-.55-3.653-1.652C.434 16.494 0 14.783 0 12.465 0 8 1.478 4.145 4.435.899c.58-.58 1.246-.87 2-.87.637 0 1.188.233 1.652.696.464.406.696.899.696 1.479 0 .637-.232 1.188-.696 1.652C6.58 5.42 5.623 7.334 5.217 9.595zm14.435 0c1.275.116 2.319.609 3.13 1.478.812.87 1.218 1.971 1.218 3.305 0 1.449-.435 2.637-1.304 3.565-.87.87-1.971 1.304-3.305 1.304-1.507 0-2.724-.55-3.652-1.652-.87-1.101-1.304-2.812-1.304-5.13 0-4.464 1.478-8.32 4.435-11.566.58-.58 1.246-.87 2-.87.637 0 1.188.233 1.652.696.463.406.695.899.695 1.479 0 .637-.232 1.188-.695 1.652-1.507 1.565-2.464 3.478-2.87 5.739z" fill="#000"/></svg>