<svg width="44" height="45" fill="none" xmlns="http://www.w3.org/2000/svg"><g clip-path="url(#clip0_669_756)" fill="#000"><path d="M44 20.366c0-1.69-1.09-3.128-2.602-3.654-.232-5.24-2.189-9.262-5.825-11.965C32.254 2.28 27.688 1.03 22 1.03c-5.688 0-10.254 1.25-13.573 3.717-3.636 2.703-5.593 6.725-5.825 11.965A3.873 3.873 0 000 20.366c0 .99.374 1.893.988 2.578A3.852 3.852 0 000 25.522c0 1.7 1.103 3.146 2.63 3.663.553 5.89 5.56 10.517 11.636 10.517h15.468c6.076 0 11.084-4.627 11.636-10.517A3.873 3.873 0 0044 25.522a3.85 3.85 0 00-.988-2.578A3.851 3.851 0 0044 20.366zM22 3.608c7.393 0 16.151 2.279 16.803 12.89H5.197C5.849 5.887 14.607 3.608 22 3.608zM3.867 19.077h36.266c.71 0 1.289.578 1.289 1.289 0 .71-.578 1.289-1.29 1.289H3.868a1.29 1.29 0 01-1.289-1.29c0-.71.578-1.288 1.29-1.288zm25.867 18.046H14.266c-4.581 0-8.383-3.367-9.016-7.734h1.195c.862 0 1.134.293 1.677.877.667.718 1.58 1.701 3.566 1.701 2 0 2.889-.993 3.538-1.718.513-.572.77-.86 1.618-.86.848 0 1.105.288 1.617.86.65.725 1.54 1.718 3.539 1.718 2 0 2.89-.993 3.538-1.718.513-.572.77-.86 1.618-.86.848 0 1.105.288 1.618.86.65.725 1.539 1.718 3.538 1.718 2 0 2.89-.993 3.539-1.718.513-.572.77-.86 1.618-.86h1.281c-.633 4.367-4.435 7.735-9.016 7.735zm10.399-10.312h-2.664c-2 0-2.89.993-3.539 1.718-.512.573-.77.86-1.617.86-.848 0-1.106-.287-1.618-.86-.65-.725-1.539-1.718-3.539-1.718s-2.889.993-3.538 1.718c-.513.573-.77.86-1.618.86-.848 0-1.105-.287-1.618-.86-.65-.725-1.538-1.718-3.538-1.718-2 0-2.89.993-3.539 1.718-.512.573-.77.86-1.617.86-.862 0-1.135-.293-1.677-.877-.667-.718-1.58-1.701-3.566-1.701H3.867a1.29 1.29 0 01-1.289-1.289c0-.71.578-1.29 1.29-1.29h36.265a1.29 1.29 0 010 2.578z"/><path d="M14.266 13.92a1.289 1.289 0 100-2.578 1.289 1.289 0 000 2.578zm15.468 0a1.289 1.289 0 100-2.578 1.289 1.289 0 000 2.578zm-5.156-2.578a1.289 1.289 0 100-2.578 1.289 1.289 0 000 2.578zm-5.156-2.578a1.289 1.289 0 100-2.578 1.289 1.289 0 000 2.578z"/></g><defs><clipPath id="clip0_669_756"><path fill="#fff" transform="translate(0 .03)" d="M0 0h44v44H0z"/></clipPath></defs></svg>