<?xml version="1.0" encoding="utf-8"?><svg viewBox="0 0 44 45" xmlns="http://www.w3.org/2000/svg" xmlns:xlink="http://www.w3.org/1999/xlink"><style>:root>svg{display:none}:root>svg:target{display:block}</style><svg fill="none" viewBox="0 0 14 13" id="icon-arrow-right" xmlns="http://www.w3.org/2000/svg"><path d="M8.121.323a1 1 0 0 0 0 1.414l3.292 3.293L1 5.037a1 1 0 1 0 0 2l10.414-.007-3.293 3.293a1 1 0 1 0 1.414 1.414l3.586-3.585a3 3 0 0 0 0-4.243L9.535.323a1 1 0 0 0-1.414 0Z" fill="#000"/></svg><svg fill="none" viewBox="0 0 30 22" id="icon-burger" xmlns="http://www.w3.org/2000/svg"><path stroke="#363853" stroke-width="2" d="M0 1h30M0 11h30M0 21h30"/></svg><svg fill="none" viewBox="0 0 22 22" id="icon-call" xmlns="http://www.w3.org/2000/svg"><path d="M13.353 1.53a7.97 7.97 0 0 1 7.04 7.032M13.353 5.073a4.426 4.426 0 0 1 3.5 3.5" stroke="#000" stroke-width="1.5" stroke-linecap="round" stroke-linejoin="round"/><path clip-rule="evenodd" d="M10.031 11.502c3.99 3.988 4.894-.626 7.434 1.913 2.449 2.448 3.857 2.938.754 6.04-.389.312-2.858 4.069-11.535-4.605-8.677-8.676-4.922-11.148-4.61-11.536 3.11-3.11 3.593-1.695 6.041.753 2.54 2.54-2.072 3.447 1.916 7.435Z" stroke="#000" stroke-width="1.5" stroke-linecap="round" stroke-linejoin="round"/></svg><svg fill="none" viewBox="0 0 21 20" id="icon-cart" xmlns="http://www.w3.org/2000/svg"><path d="m1 1.03 2.08.356.963 11.34c.077.926.86 1.636 1.8 1.633h10.909a1.794 1.794 0 0 0 1.785-1.528l.949-6.482a1.328 1.328 0 0 0-1.135-1.501c-.064-.009-14.937-.014-14.937-.014M12.375 8.487h2.773" stroke="#000" stroke-width="1.5" stroke-linecap="round" stroke-linejoin="round"/><path fill-rule="evenodd" clip-rule="evenodd" d="M5.404 17.786a.54.54 0 0 1 .544.538.541.541 0 0 1-.544.538.541.541 0 0 1-.544-.538.54.54 0 0 1 .544-.538ZM16.685 17.786c.3 0 .545.24.545.538a.542.542 0 0 1-.545.538.541.541 0 0 1-.544-.538.54.54 0 0 1 .544-.538Z" fill="#000" stroke="#000" stroke-width="1.5" stroke-linecap="round" stroke-linejoin="round"/></svg><svg fill="none" viewBox="0 0 44 45" id="icon-category-asia" xmlns="http://www.w3.org/2000/svg"><g clip-path="url(#aea)"><g clip-path="url(#aeb)" fill="#000"><path d="M15.132 13.597h2.124c.552 0 1 .448 1 1v1.464a.645.645 0 1 0 1.29 0v-1.464a2.292 2.292 0 0 0-2.29-2.29h-2.124a.984.984 0 0 1 0-1.966h4.711a2.275 2.275 0 0 0 2.272-2.272 2.275 2.275 0 0 0-2.272-2.272h-3.77a.645.645 0 0 0 0 1.29h3.77a.984.984 0 0 1 0 1.965h-4.711a2.275 2.275 0 0 0-2.273 2.272 2.275 2.275 0 0 0 2.273 2.273ZM7.389 17.922h2.108c.544 0 .987.443.987.988v1.453a.644.644 0 1 0 1.29 0V18.91a2.279 2.279 0 0 0-2.277-2.277H7.39a.972.972 0 0 1 0-1.94h2.465a.645.645 0 0 0 0-1.29H7.389a2.262 2.262 0 0 0-2.26 2.26 2.262 2.262 0 0 0 2.26 2.26ZM25.652 26.842a.645.645 0 1 0 0-1.289.645.645 0 0 0 0 1.29ZM28.832 28.303a.645.645 0 1 0 0-1.289.645.645 0 0 0 0 1.29ZM30.723 30.538a.645.645 0 1 0 0-1.29.645.645 0 0 0 0 1.29ZM28.059 25.295a.644.644 0 1 0 0-1.289.644.644 0 0 0 0 1.29ZM25.91 30.967a.645.645 0 1 0 0-1.289.645.645 0 0 0 0 1.29Z"/><path d="M42.911 22.84h-1.828l.904-1.867A2.507 2.507 0 0 0 44 18.52a2.506 2.506 0 0 0-2.102-2.47c-1.315-2.37-3.885-4.149-7.001-4.86v-.048a.645.645 0 0 0-1.264-.176 13.82 13.82 0 0 0-1.197-.1.644.644 0 0 0-1.163 0c-.405.017-.804.05-1.197.1a.644.644 0 0 0-1.264.176v.049c-3.116.71-5.686 2.49-7.001 4.859a2.506 2.506 0 0 0-2.093 2.685c-2.975.277-5.649 1.52-7.655 3.385h-4.05a.909.909 0 0 0-.69.319H5.43A2.118 2.118 0 0 0 3.473 21.1a2.106 2.106 0 0 0-2.082 2.397 2.107 2.107 0 0 0-1.066 3.104 2.106 2.106 0 0 0 1.778 3.229c.878 0 1.648-.554 1.958-1.337h1.704a.91.91 0 0 0 .586.623l2.02.686a10.898 10.898 0 0 0-.002 1.223c-.316.076-.61.207-.873.383a2.7 2.7 0 0 0-1.51-.46 2.721 2.721 0 0 0-2.717 2.719l.002.068h-.754c-.426 0-.803.239-.985.624-.181.385-.126.828.144 1.156l1.934 2.35c.207.252.514.397.84.397h27.26a.644.644 0 1 0 0-1.29H4.545l-1.604-1.948h39.544l-1.603 1.949h-6.164a.644.644 0 1 0 0 1.289h6.258c.327 0 .633-.145.84-.397l1.934-2.35a1.08 1.08 0 0 0 .144-1.156 1.079 1.079 0 0 0-.984-.624h-.638a5.41 5.41 0 0 0 .64-3.672.645.645 0 0 0-.52-.519 5.409 5.409 0 0 0-5.008 1.731c-.37-.2-.79-.316-1.237-.325v-1.226h.688c1.09 0 1.977-.887 1.977-1.977v-.865h4.1c.6 0 1.088-.488 1.088-1.089V23.93c0-.6-.488-1.088-1.089-1.088ZM6.291 33.737H4.56l-.002-.068a1.43 1.43 0 0 1 2.053-1.284c-.206.382-.323.82-.323 1.284 0 .023.002.045.003.068Zm32.225-1.785a4.116 4.116 0 0 1 3.184-1.194 4.118 4.118 0 0 1-1.005 2.979h-1.063l.881-.88a.644.644 0 1 0-.911-.912l-.914.913a2.71 2.71 0 0 0-.348-.717c.057-.065.115-.127.176-.189ZM25.503 13.972a10.719 10.719 0 0 1 3.309-1.452v.663a.644.644 0 1 0 1.29 0v-.919c.364-.052.735-.086 1.108-.105v1.024a.644.644 0 1 0 1.289 0V12.16c.373.02.743.053 1.109.105v.92a.644.644 0 1 0 1.289 0v-.664c1.206.308 2.333.799 3.309 1.452.95.637 1.724 1.406 2.288 2.256a2.526 2.526 0 0 0-.604.375 2.506 2.506 0 0 0-1.607-.587c-.595 0-1.163.214-1.607.587a2.506 2.506 0 0 0-1.607-.587c-.595 0-1.163.214-1.607.587a2.506 2.506 0 0 0-1.608-.587c-.594 0-1.162.214-1.607.587a2.506 2.506 0 0 0-1.607-.587c-.594 0-1.162.214-1.607.587a2.506 2.506 0 0 0-1.607-.587c-.594 0-1.162.214-1.607.587a2.524 2.524 0 0 0-.605-.375c.565-.85 1.339-1.62 2.29-2.256Zm-3.291 3.333c.43 0 .832.233 1.05.607a.645.645 0 0 0 1.114 0c.217-.374.62-.607 1.05-.607.43 0 .832.233 1.05.607a.644.644 0 0 0 1.115 0c.217-.374.619-.607 1.05-.607.43 0 .832.233 1.049.607a.644.644 0 0 0 1.115 0c.217-.374.62-.607 1.05-.607.43 0 .832.233 1.049.607a.644.644 0 0 0 1.115 0c.217-.374.62-.607 1.05-.607.43 0 .832.233 1.05.607a.645.645 0 0 0 1.114 0c.217-.374.62-.607 1.05-.607.43 0 .832.233 1.05.607a.644.644 0 0 0 1.114 0c.218-.374.62-.607 1.05-.607a1.215 1.215 0 0 1 0 2.427c-.43 0-.832-.232-1.05-.607a.645.645 0 0 0-1.114 0c-.218.375-.62.607-1.05.607-.43 0-.833-.232-1.05-.607a.645.645 0 0 0-1.115 0c-.217.375-.62.607-1.05.607-.43 0-.832-.232-1.049-.607a.644.644 0 0 0-1.115 0c-.217.375-.62.607-1.05.607-.43 0-.832-.232-1.05-.607a.645.645 0 0 0-1.114 0c-.218.375-.62.607-1.05.607-.43 0-.832-.232-1.05-.607a.645.645 0 0 0-1.114 0 1.22 1.22 0 0 1-.54.493 13.364 13.364 0 0 0-4.927-.942 1.215 1.215 0 0 1 1.202-1.37v-.001Zm-13.82 6.103h2.472a11.78 11.78 0 0 0-.712.984h-1.76v-.984Zm-2.66 3.796H3.558a.645.645 0 0 0-.643.592.818.818 0 0 1-.81.745.815.815 0 0 1-.519-1.442.644.644 0 0 0 0-.994.813.813 0 1 1 1.33-.697.645.645 0 0 0 .642.592h2.176v1.204Zm.221-2.493H4.061a2.129 2.129 0 0 0-1.36-1.248.813.813 0 1 1 1.583-.327.645.645 0 0 0 .642.59h2.177v.666h-.46a.909.909 0 0 0-.69.319Zm4.48 9.025H7.58a1.43 1.43 0 0 1 1.427-1.497 1.43 1.43 0 0 1 1.428 1.429l-.002.068Zm19.879 0h-2.244l-.002-.068a1.43 1.43 0 0 1 2.439-1.01 2.703 2.703 0 0 0-.196 1.01c0 .023.002.045.003.068Zm-.817-2.786a2.721 2.721 0 0 0-2.719 2.718c0 .023.002.045.003.068H11.722l.002-.068c0-1.273-.88-2.344-2.063-2.638a9.739 9.739 0 0 1-.016-.795l6.592 2.239a4.113 4.113 0 0 0 3.753-.556 4.106 4.106 0 0 0 1.732-3.375c0-.484-.083-.96-.247-1.413a.645.645 0 1 0-1.212.44c.113.311.17.639.17.973a2.83 2.83 0 0 1-1.195 2.326 2.83 2.83 0 0 1-2.587.384l-9.629-3.27v-2.302h10.55c.323 0 .641.054.946.161a.644.644 0 1 0 .427-1.216 4.144 4.144 0 0 0-1.373-.234h-5.845c2.056-2.677 5.438-4.428 9.256-4.428 6.253 0 11.34 4.696 11.34 10.468 0 .206-.006.411-.02.616-.389.108-.743.3-1.042.556a2.705 2.705 0 0 0-1.766-.654Zm4.959 2.786h-2.853a1.43 1.43 0 0 1 1.427-1.497c.787 0 1.428.64 1.428 1.429 0 .023 0 .045-.002.068Zm.404-2.486c-.102.052-.202.11-.297.175a2.704 2.704 0 0 0-.964-.414c.01-.192.016-.385.016-.579 0-.237-.01-.473-.025-.707h1.27v1.524Zm2.665 2.418c0 .023-.002.045-.003.068h-1.777l.002-.068a2.7 2.7 0 0 0-.313-1.266 1.43 1.43 0 0 1 2.09 1.266Zm0-5.92c0 .38-.309.688-.688.688h-3.407c-.098-.53-.232-1.05-.404-1.553h4.499v.865Zm5.188-2.154H32.493a11.526 11.526 0 0 0-.853-1.464h2.735a.645.645 0 0 0 0-1.29h-3.756a12.417 12.417 0 0 0-2.077-1.82l.098.001c.595 0 1.162-.214 1.607-.587a2.506 2.506 0 0 0 1.607.587c.595 0 1.163-.214 1.608-.587a2.506 2.506 0 0 0 1.607.587c.594 0 1.162-.214 1.607-.587a2.506 2.506 0 0 0 1.607.587c.594 0 1.162-.214 1.607-.587.215.18.459.323.72.423l-.96 1.984h-2.267a.644.644 0 1 0 0 1.289h5.328v1.464Z"/></g></g><defs><clipPath id="aea"><path fill="#fff" transform="translate(0 .03)" d="M0 0h44v44H0z"/></clipPath><clipPath id="aeb"><path fill="#fff" transform="translate(0 .03)" d="M0 0h44v44H0z"/></clipPath></defs></svg><svg fill="none" viewBox="0 0 44 45" id="icon-category-burger" xmlns="http://www.w3.org/2000/svg"><g clip-path="url(#afa)" fill="#000"><path d="M44 20.366c0-1.69-1.09-3.128-2.602-3.654-.232-5.24-2.189-9.262-5.825-11.965C32.254 2.28 27.688 1.03 22 1.03c-5.688 0-10.254 1.25-13.573 3.717-3.636 2.703-5.593 6.725-5.825 11.965A3.873 3.873 0 0 0 0 20.366c0 .99.374 1.893.988 2.578A3.852 3.852 0 0 0 0 25.522c0 1.7 1.103 3.146 2.63 3.663.553 5.89 5.56 10.517 11.636 10.517h15.468c6.076 0 11.084-4.627 11.636-10.517A3.873 3.873 0 0 0 44 25.522c0-.99-.374-1.893-.988-2.578A3.851 3.851 0 0 0 44 20.366ZM22 3.608c7.393 0 16.151 2.279 16.803 12.89H5.197C5.849 5.887 14.607 3.608 22 3.608ZM3.867 19.077h36.266c.71 0 1.289.578 1.289 1.289 0 .71-.578 1.289-1.29 1.289H3.868a1.29 1.29 0 0 1-1.289-1.29c0-.71.578-1.288 1.29-1.288Zm25.867 18.046H14.266c-4.581 0-8.383-3.367-9.016-7.734h1.195c.862 0 1.134.293 1.677.877.667.718 1.58 1.701 3.566 1.701 2 0 2.889-.993 3.538-1.718.513-.572.77-.86 1.618-.86.848 0 1.105.288 1.617.86.65.725 1.54 1.718 3.539 1.718 2 0 2.89-.993 3.538-1.718.513-.572.77-.86 1.618-.86.848 0 1.105.288 1.618.86.65.725 1.539 1.718 3.538 1.718 2 0 2.89-.993 3.539-1.718.513-.572.77-.86 1.618-.86h1.281c-.633 4.367-4.435 7.735-9.016 7.735Zm10.399-10.312h-2.664c-2 0-2.89.993-3.539 1.718-.512.573-.77.86-1.617.86-.848 0-1.106-.287-1.618-.86-.65-.725-1.539-1.718-3.539-1.718s-2.889.993-3.538 1.718c-.513.573-.77.86-1.618.86-.848 0-1.105-.287-1.618-.86-.65-.725-1.538-1.718-3.538-1.718-2 0-2.89.993-3.539 1.718-.512.573-.77.86-1.617.86-.862 0-1.135-.293-1.677-.877-.667-.718-1.58-1.701-3.566-1.701H3.867a1.29 1.29 0 0 1-1.289-1.289c0-.71.578-1.29 1.29-1.29h36.265a1.29 1.29 0 0 1 0 2.578Z"/><path d="M14.266 13.92a1.289 1.289 0 1 0 0-2.578 1.289 1.289 0 0 0 0 2.578ZM29.734 13.92a1.289 1.289 0 1 0 0-2.578 1.289 1.289 0 0 0 0 2.578ZM24.578 11.342a1.289 1.289 0 1 0 0-2.578 1.289 1.289 0 0 0 0 2.578ZM19.422 8.764a1.289 1.289 0 1 0 0-2.578 1.289 1.289 0 0 0 0 2.578Z"/></g><defs><clipPath id="afa"><path fill="#fff" transform="translate(0 .03)" d="M0 0h44v44H0z"/></clipPath></defs></svg><svg fill="none" viewBox="0 0 44 44" id="icon-category-dish" xmlns="http://www.w3.org/2000/svg"><g clip-path="url(#aga)" fill="#000"><path d="m31.158 14.687-.47-1.531c-.599-1.74-2.51-2.671-4.27-2.08a3.347 3.347 0 0 0-2.105 2.08l-.47 1.531a8.506 8.506 0 0 0-.244 3.987 3.754 3.754 0 0 0 1.954 2.613l-.527 11.65c-.07.65.143 1.3.587 1.784a2.583 2.583 0 0 0 3.78 0 2.248 2.248 0 0 0 .587-1.736l-.53-11.7a3.753 3.753 0 0 0 1.95-2.611 8.506 8.506 0 0 0-.242-3.987Zm-1.202 3.735a2.307 2.307 0 0 1-1.522 1.731.724.724 0 0 0-.474.711l.557 12.236a.833.833 0 0 1-.22.657 1.142 1.142 0 0 1-1.594 0 .863.863 0 0 1-.216-.705l.553-12.188a.725.725 0 0 0-.474-.71 2.307 2.307 0 0 1-1.522-1.732 7.068 7.068 0 0 1 .202-3.31l.47-1.532a1.908 1.908 0 0 1 3.568 0l.47 1.532a7.078 7.078 0 0 1 .202 3.31ZM19.8 10.902a.73.73 0 0 0-.733.725v6.223l-1.986 1.962a.72.72 0 0 0-.214.549l.641 12.684a.98.98 0 0 1-.277.739c-.401.4-1.055.403-1.46.006l-.007-.006a.98.98 0 0 1-.277-.739l.646-12.684a.72.72 0 0 0-.214-.549l-1.986-1.962v-6.223a.73.73 0 0 0-.733-.725.73.73 0 0 0-.733.725v6.523a.72.72 0 0 0 .214.513l1.97 1.947-.625 12.365c-.067 1.35.987 2.5 2.354 2.565 1.366.066 2.528-.976 2.594-2.327.004-.079.004-.158 0-.238L18.35 20.61l1.97-1.947a.72.72 0 0 0 .214-.513v-6.523a.73.73 0 0 0-.733-.725Z"/><path d="M15.4 10.902a.73.73 0 0 0-.733.725v5.798c0 .4.328.725.733.725a.73.73 0 0 0 .733-.724v-5.8a.73.73 0 0 0-.733-.724ZM17.6 10.902a.73.73 0 0 0-.733.725v5.798c0 .4.328.725.733.725a.73.73 0 0 0 .733-.724v-5.8a.73.73 0 0 0-.733-.724Z"/><path d="M22 .03C9.85.03 0 9.765 0 21.775c0 12.009 9.85 21.744 22 21.744s22-9.735 22-21.744C43.986 9.77 34.145.043 22 .03Zm0 42.04c-11.34 0-20.533-9.087-20.533-20.296C1.467 10.566 10.66 1.48 22 1.48c11.34 0 20.533 9.087 20.533 20.296C42.52 32.977 33.335 42.056 22 42.069Z"/><path d="M24.38 35.38a.731.731 0 0 0-.829-.647l.003-.001a13.618 13.618 0 0 1-3.108 0 .732.732 0 0 0-.814.636.727.727 0 0 0 .643.805c1.145.132 2.302.132 3.447 0a.727.727 0 0 0 .658-.792ZM33.22 12.434a.74.74 0 0 0-1.033-.09.72.72 0 0 0-.091 1.024 12.936 12.936 0 0 1-.778 17.648.719.719 0 0 0-.002 1.025.74.74 0 0 0 1.037.002 14.374 14.374 0 0 0 .867-19.609ZM17.086 9.611h-.004.004ZM25.46 7.683a14.96 14.96 0 0 0-8.633.524.722.722 0 0 0 .258 1.403.741.741 0 0 0 .256-.047 13.47 13.47 0 0 1 7.773-.47.724.724 0 1 0 .345-1.41ZM12.65 30.98a12.887 12.887 0 0 1-3.85-9.206 12.85 12.85 0 0 1 2.523-7.674.72.72 0 0 0-.145-1.015.739.739 0 0 0-1.04.161 14.371 14.371 0 0 0 1.472 18.76.74.74 0 0 0 1.039 0 .72.72 0 0 0 0-1.026Z"/></g><defs><clipPath id="aga"><path fill="#fff" transform="translate(0 .03)" d="M0 0h44v43.489H0z"/></clipPath></defs></svg><svg fill="none" viewBox="0 0 44 45" id="icon-category-pizza" xmlns="http://www.w3.org/2000/svg"><g clip-path="url(#aha)" fill="#000"><path d="M43.745 43.782a.859.859 0 0 1-.892.198L7.159 31.253a4.698 4.698 0 0 1-4.256.338A4.706 4.706 0 0 1 .359 25.45a46.081 46.081 0 0 1 10.038-15.023A46.08 46.08 0 0 1 25.42.388 4.676 4.676 0 0 1 27.213.03c1.846 0 3.6 1.093 4.35 2.902a4.687 4.687 0 0 1-.026 3.65l12.418 36.31a.86.86 0 0 1-.21.89ZM12.563 31.355l3.783 1.349a2.186 2.186 0 0 0-.264-3.236 2.176 2.176 0 0 0-1.62-.433 2.177 2.177 0 0 0-1.451.838c-.329.427-.485.95-.448 1.482ZM29.974 3.59a2.985 2.985 0 0 0-3.896-1.614C15.075 6.534 6.505 15.104 1.947 26.107a2.962 2.962 0 0 0 0 2.282 2.963 2.963 0 0 0 1.614 1.614 2.963 2.963 0 0 0 2.282 0 2.963 2.963 0 0 0 1.614-1.614 38.432 38.432 0 0 1 8.373-12.53 38.433 38.433 0 0 1 12.53-8.373 2.985 2.985 0 0 0 1.614-3.896Zm7.635 26.06a2.176 2.176 0 0 0-1.685.855 2.176 2.176 0 0 0-.434 1.62 2.193 2.193 0 0 0 2.458 1.885c.37-.049.716-.192 1.012-.41l-1.35-3.95Zm1.923 5.62a3.909 3.909 0 1 1-2.494-7.29l-1.708-4.994-1.964 1.507a.86.86 0 0 1-1.047-1.364l2.424-1.86-4.442-12.99a4.682 4.682 0 0 1-1.282.795C19.91 12.846 12.818 19.94 9.045 29.047c-.13.317-.294.61-.482.882l2.302.82c.08-.693.346-1.354.782-1.922a3.883 3.883 0 0 1 3.11-1.53c.854 0 1.682.279 2.371.808a3.884 3.884 0 0 1 1.496 2.591c.123.93-.094 1.85-.581 2.613l10.682 3.809.405-.978a.86.86 0 1 1 1.588.658l-.372.898 11.406 4.066-2.22-6.491Z"/><path d="M9.281 20.975a.86.86 0 1 1 0 0ZM7.974 23.11a40.668 40.668 0 0 0-2.237 4.567.86.86 0 1 1-1.588-.658 42.391 42.391 0 0 1 2.332-4.76.86.86 0 1 1 1.493.85ZM26.893 33.031a3.918 3.918 0 0 1-4.386-3.365 3.914 3.914 0 0 1 3.88-4.42 3.918 3.918 0 0 1 3.871 3.4 3.914 3.914 0 0 1-3.365 4.385Zm1.661-4.162a2.195 2.195 0 0 0-2.458-1.886 2.193 2.193 0 0 0-1.885 2.458 2.194 2.194 0 0 0 2.457 1.886 2.193 2.193 0 0 0 1.886-2.458ZM26.669 22.341a3.918 3.918 0 0 1-4.386-3.365 3.883 3.883 0 0 1 .774-2.89 3.884 3.884 0 0 1 3.105-1.53 3.918 3.918 0 0 1 3.872 3.4 3.914 3.914 0 0 1-3.365 4.385Zm1.661-4.161a2.195 2.195 0 0 0-2.457-1.886 2.177 2.177 0 0 0-1.452.838 2.176 2.176 0 0 0-.434 1.62 2.195 2.195 0 0 0 2.458 1.885 2.193 2.193 0 0 0 1.885-2.457ZM21.001 25.902l-2.641.348a.86.86 0 1 1-.225-1.704l2.641-.348a.86.86 0 0 1 .225 1.704ZM19.662 19.56l-.234 1.772a.859.859 0 1 1-1.704-.224l.234-1.773a.86.86 0 0 1 1.704.225Z"/></g><defs><clipPath id="aha"><path fill="#fff" transform="matrix(1 0 0 -1 0 44.03)" d="M0 0h44v44H0z"/></clipPath></defs></svg><svg fill="none" viewBox="0 0 44 45" id="icon-category-sandvich" xmlns="http://www.w3.org/2000/svg"><g clip-path="url(#aia)" fill="#000"><path d="M41.8 6.63h-1.467V5.163a2.2 2.2 0 0 0-2.2-2.2h-1.747L35.326.841A1.457 1.457 0 0 0 34.012.03H33c-.81 0-1.467.656-1.467 1.466v1.467h-8.066a2.2 2.2 0 0 0-2.2 2.2V6.63H19.8a2.2 2.2 0 0 0-2.2 2.2v1.466c0 .81.657 1.467 1.467 1.467h.077l.858 7.577-3.533-.83a11.105 11.105 0 0 0-.576-.814l-1.247-5.365a.733.733 0 0 0-.713-.568H9.72C7.73 10.011 5.382 9.219 3.61 9.74L2.532 8.567A1.448 1.448 0 0 0 .928 8.2c-.56.216-.93.755-.928 1.356v32.288a2.188 2.188 0 0 0 2.185 2.186h35.948c.373 0 .686-.28.728-.65l3.593-31.617h.08c.81 0 1.466-.657 1.466-1.467V8.83a2.2 2.2 0 0 0-2.2-2.2ZM33 1.496h1.013l.734 1.467H33V1.496ZM22.733 5.163c0-.405.329-.733.734-.733h14.666c.405 0 .734.328.734.733V6.63H22.733V5.163Zm-2.053 15.84.046.009.593.14.397 4.162a6.758 6.758 0 0 0-3.94-1.242 6.28 6.28 0 0 0-.411-3.848l3.315.779Zm1.433 6.486.01.008c.265.246.517.506.755.78a8.686 8.686 0 0 1 1.876 3.386c.124.438.188.89.19 1.345l-6.85-7.47c1.524.17 2.943.86 4.019 1.951Zm-7.728-9.32v-.001c1.583 1.819 2.32 4.003 1.97 5.471l-7.463-8.136c1.505-.337 3.795.72 5.493 2.666Zm-1.038-4.94.586 2.498a9.347 9.347 0 0 0-1.913-1.155 11.565 11.565 0 0 0-.928-1.342h2.255Zm-3.687.546h.003c.06.07.11.147.17.22a3.99 3.99 0 0 0-2.012.338l-3.015-3.287c1.474.021 3.398 1.058 4.854 2.73Zm21.077 28.357a.717.717 0 0 1-.656.431H2.185a.719.719 0 0 1-.718-.719l-.014-32.28 14.72 16.047v.004l8.644 9.424.01.011 4.74 5.172c.018.021.035.044.055.065l.983 1.072a.716.716 0 0 1 .132.773Zm-4.54-7.757a4.61 4.61 0 0 0 .203-1.352c.385.325.744.68 1.074 1.061.41.468.773.975 1.086 1.512.428.72.73 1.508.895 2.33l-3.257-3.551Zm11.281 8.188h-5.342c.275-.76.1-1.61-.45-2.2l-.74-.807a6.691 6.691 0 0 0-.571-3.593h7.854l-.75 6.6Zm.917-8.067h-8.8a11.218 11.218 0 0 0-1.009-1.374 10.687 10.687 0 0 0-2.512-2.136 10.145 10.145 0 0 0-2.09-3.676c-.22-.25-.44-.482-.671-.706l-.58-6.11a.733.733 0 0 0-.56-.645l-.65-.154-.154-1.332h18.86l-1.834 16.133Zm2-17.6H21.203l-.58-5.133h20.357l-.583 5.133Zm2.138-6.6H19.067V8.83c0-.405.328-.734.733-.734h22c.405 0 .733.329.733.734v1.466Z"/><path d="M31.1 32.297c.042 0 .083-.006.124-.008.011 0 .023.008.034.008a.692.692 0 0 0 .109-.016 3.967 3.967 0 0 0 2.899-1.568 5.101 5.101 0 0 0 .714-4.475c-.102-.38-.195-.752-.285-1.112-.572-2.293-1.119-4.456-3.435-4.553-.024 0-.046-.005-.07-.005-.023 0-.057-.005-.09-.005-2.591 0-4.7 2.632-4.7 5.867s2.109 5.867 4.7 5.867Zm.568-10.157c.758.298 1.092 1.291 1.604 3.34.092.368.187.752.293 1.141a3.656 3.656 0 0 1-.464 3.2 2.59 2.59 0 0 1-.876.734 10.656 10.656 0 0 0-.733-3.68c-.073-.23-.147-.45-.211-.66-.427-1.389.073-3.188.387-4.075Zm-1.576.11a8.05 8.05 0 0 0-.212 4.393c.068.22.143.448.22.685.367 1.12.807 2.472.627 3.468-1.607-.25-2.86-2.112-2.86-4.366 0-1.947.935-3.6 2.225-4.18ZM3.881 38.593l-.518.518A.733.733 0 1 0 4.4 40.148l.518-.518a.733.733 0 0 0-1.037-1.037ZM10.893 33.656a.734.734 0 0 0-1.038-1.038l-.518.519a.733.733 0 1 0 1.037 1.038l.519-.519ZM4.4 31.778l-.519.519a.733.733 0 1 0 1.037 1.036l.519-.518A.733.733 0 0 0 4.4 31.778ZM4.4 26.645l-.519.518A.733.733 0 1 0 4.918 28.2l.519-.518A.733.733 0 0 0 4.4 26.645ZM11 38.593l-.518.518a.733.733 0 1 0 1.036 1.037l.519-.518A.733.733 0 0 0 11 38.593ZM16.348 38.593l-.518.518a.734.734 0 1 0 1.037 1.037l.518-.518a.733.733 0 0 0-1.037-1.037Z"/></g><defs><clipPath id="aia"><path fill="#fff" transform="translate(0 .03)" d="M0 0h44v44H0z"/></clipPath></defs></svg><svg fill="none" viewBox="0 0 22 16" id="icon-check" xmlns="http://www.w3.org/2000/svg"><path d="M7.693 15.03a1.09 1.09 0 0 1-.763-.309L.317 8.274a1.033 1.033 0 0 1 0-1.488 1.098 1.098 0 0 1 1.526 0l5.85 5.703L20.157.339a1.098 1.098 0 0 1 1.526 0 1.033 1.033 0 0 1 0 1.488L8.457 14.72c-.21.206-.487.309-.764.309Z" fill="#000"/></svg><svg fill="none" viewBox="0 0 18 11" id="icon-chevron-down" xmlns="http://www.w3.org/2000/svg"><path d="M8.43 10.33.22 1.322a.76.76 0 0 1 0-1.07.75.75 0 0 1 1.066 0L9 8.715 16.714.252a.75.75 0 0 1 1.066 0 .76.76 0 0 1 0 1.07L9.57 10.33a.741.741 0 0 1-.57.215.748.748 0 0 1-.57-.216Z" fill="#000"/></svg><svg fill="none" viewBox="0 0 11 19" id="icon-chevron-left" xmlns="http://www.w3.org/2000/svg"><path d="m.216 9.6 9.008 8.21a.76.76 0 0 0 1.07 0 .75.75 0 0 0 0-1.066L1.83 9.03l8.464-7.714a.75.75 0 0 0 0-1.066.76.76 0 0 0-1.07 0L.215 8.46a.742.742 0 0 0-.215.57.748.748 0 0 0 .215.572Z" fill="#000"/></svg><svg fill="none" viewBox="0 0 11 19" id="icon-chevron-right" xmlns="http://www.w3.org/2000/svg"><path d="m10.3 9.6-9.008 8.21a.76.76 0 0 1-1.07 0 .75.75 0 0 1 0-1.066L8.686 9.03.222 1.316a.75.75 0 0 1 0-1.066.76.76 0 0 1 1.07 0L10.3 8.46a.741.741 0 0 1 .215.57.748.748 0 0 1-.215.572Z" fill="#000"/></svg><svg fill="none" viewBox="0 0 18 18" id="icon-close" xmlns="http://www.w3.org/2000/svg"><g clip-path="url(#ana)"><path d="m10.055 9.005 7.716-7.716a.75.75 0 1 0-1.06-1.06L8.995 7.945 1.28.23A.75.75 0 0 0 .22 1.29l7.716 7.716L.22 16.721a.75.75 0 0 0 1.06 1.06l7.716-7.716 7.716 7.716a.75.75 0 0 0 1.06-1.06l-7.716-7.716Z" fill="#363853"/></g><defs><clipPath id="ana"><path fill="#fff" d="M0 0h18v18H0z"/></clipPath></defs></svg><svg fill="none" viewBox="0 0 34 34" id="icon-delivery" xmlns="http://www.w3.org/2000/svg"><path d="m6.518 24.499.407.97c.288-.118.587-.205.893-.26l-.19-1.034a5.49 5.49 0 0 0-1.11.324ZM3.727 27.105l.956.458a4.322 4.322 0 0 1 1.46-1.676l-.6-.867a5.378 5.378 0 0 0-1.816 2.085Z" fill="#000"/><path d="M32.938 26.81c0-.905-.337-1.777-.948-2.45l-.791.7c.314.346.529.769.623 1.225h-3.666a.536.536 0 0 0-.442.233l-1.967 2.917h-1.31V27.86a3.658 3.658 0 0 1 1.09-2.598 3.746 3.746 0 0 1 2.63-1.078h1.062c.522 0 1.033.151 1.468.437l.588-.874a3.723 3.723 0 0 0-1.525-.575v-1.613a.522.522 0 0 0-.156-.372.535.535 0 0 0-.375-.153 2.14 2.14 0 0 1-1.502-.616 2.09 2.09 0 0 1-.623-1.485v-2.1h1.593c.141 0 .276-.055.376-.154a.522.522 0 0 0 .156-.371v-3.676a.522.522 0 0 0-.156-.371.535.535 0 0 0-.375-.154h-.938c-.221 0-.442.03-.656.09v-.615a.521.521 0 0 0-.117-.328L25.24 9.106a1.82 1.82 0 0 0-.43-2.365 1.873 1.873 0 0 0-2.43.077 1.822 1.822 0 0 0-.274 2.388 1.86 1.86 0 0 0 1.06.74c.432.113.89.068 1.291-.126l1.575 1.946v.663l-2.335-.77a1.448 1.448 0 0 0-.476-.077h-4.382l-2.522-2.908A1.559 1.559 0 0 0 17 7.382V7.18l.769-.38a.53.53 0 0 0 .276-.335.518.518 0 0 0-.072-.426l-.872-1.294a.532.532 0 0 0 .309-.18.52.52 0 0 0 .121-.335c0-.835-.337-1.636-.934-2.227a3.21 3.21 0 0 0-2.253-.923c-1 0-1.927.284-2.616 1.036a3.123 3.123 0 0 0-.808 2.427l.113 1.124c.048.484.282.931.655 1.25v9.915c0 .369.098.731.285 1.05h-.817c-.18 0-.36.03-.531.09v-6.916c0-.418-.168-.818-.467-1.113a1.605 1.605 0 0 0-1.127-.462H2.656c-.422 0-.827.166-1.126.462a1.568 1.568 0 0 0-.468 1.113v2.625h1.063v-1.05h7.438v5.251H2.125v-3.15H1.062v4.287c0 .246.088.484.247.673.16.189.381.316.626.36l4.971.894v1.232c-.45.103-.89.247-1.314.43H2.656a.534.534 0 0 0-.375.154.522.522 0 0 0-.156.371v2.492a7.393 7.393 0 0 0-1.063 3.809c0 .14.056.273.156.371.1.099.235.154.376.154h2.435a4.21 4.21 0 0 0 1.564 1.908 4.285 4.285 0 0 0 4.752 0 4.21 4.21 0 0 0 1.564-1.908h8.932a2.687 2.687 0 0 0 1.966-.86l.568-.617v1.477c0 .14.056.273.156.371.1.099.234.154.375.154h1.101c.468.8 1.19 1.427 2.054 1.78a4.296 4.296 0 0 0 2.727.177 4.252 4.252 0 0 0 2.271-1.5 4.17 4.17 0 0 0 .705-3.745.524.524 0 0 0 .173-.387ZM22.843 8.17a.782.782 0 0 1 .492-.729.806.806 0 0 1 .868.171.786.786 0 0 1 .173.859.803.803 0 0 1-1.3.255.784.784 0 0 1-.233-.557Zm-7.6 18.64c-.52-.001-1.02-.206-1.387-.57a1.93 1.93 0 0 1-.576-1.37c0-.515.132-.998.48-1.394.31-.353.737-.584 1.205-.65a2.377 2.377 0 0 0 1.454-.784c.374-.425.58-.97.58-1.533a.518.518 0 0 0-.156-.372 1.559 1.559 0 0 0 .065-1.204h1.443l-2.332 5.991a1.208 1.208 0 0 0-.082.453v1.433h-.694ZM17 25.76h2.656a.535.535 0 0 1 .508.372.52.52 0 0 1-.213.59 1.076 1.076 0 0 1-.424.088H17v-1.05Zm4.123-.093a1.582 1.582 0 0 0-.484-.622 1.608 1.608 0 0 0-.727-.315l2.2-5.236a3.03 3.03 0 0 0-.284-2.874 3.085 3.085 0 0 0-1.116-1 3.127 3.127 0 0 0-1.46-.362H17v-.833l.156.154a.533.533 0 0 0 .375.154h5.404a1.557 1.557 0 0 0 .201 1.434 1.607 1.607 0 0 0 1.301.666h.002a2.591 2.591 0 0 0-.533 1.575v4.074c0 .278-.112.545-.311.742l-2.472 2.444Zm3.314-9.884a.535.535 0 0 1-.49-.324.52.52 0 0 1 .115-.572.533.533 0 0 1 .907.37c0 .14-.056.273-.156.372a.535.535 0 0 1-.375.154Zm3.72-2.626v2.626h-1.063V13.32a1.41 1.41 0 0 1 .656-.164h.406Zm-2.126 2.1a1.56 1.56 0 0 0-.673-1.286 1.603 1.603 0 0 0-1.452-.198v-.937l2.125.7v1.722Zm-7.437-2.625h4.25v1.05H17.75l-3.032-2.996-.75.742 1.969 1.947v1.883H12.75V8.957h2.412l3.028 3.492a.53.53 0 0 0 .404.183Zm-6.078-9.81c.485-.53 1.13-.691 1.828-.691.47 0 .928.155 1.3.44.373.285.64.684.757 1.135h-2.057a.534.534 0 0 0-.376.154.522.522 0 0 0-.155.371v1.247a.848.848 0 0 1-.24.586.868.868 0 0 1-1.482-.5l-.114-1.124a2.054 2.054 0 0 1 .539-1.618Zm.433 4.56c.51-.001 1-.202 1.361-.559.361-.356.564-.84.565-1.345v-.722h1.063a.52.52 0 0 0 .089.291l.728 1.08-.524.26a.53.53 0 0 0-.294.47v.524c0 .14-.056.273-.155.372a.535.535 0 0 1-.376.154H12.75V7.37c.066.007.133.01.2.01Zm-.199 9.451v-.525h6.501c.335 0 .665.082.96.238.296.156.547.382.733.657a1.997 1.997 0 0 1 .187 1.889l-2.36 5.617h-1.529l2.379-6.112a.52.52 0 0 0-.249-.653.536.536 0 0 0-.247-.06h-5.313a1.07 1.07 0 0 1-.75-.309 1.045 1.045 0 0 1-.312-.742Zm-1.594 2.1h4.25c.141 0 .276.056.376.154a.522.522 0 0 1-.376.896h-4.25a.534.534 0 0 1-.375-.153.522.522 0 0 1 .375-.897Zm-9.031-7.35v-.526c0-.14.056-.273.156-.371a.535.535 0 0 1 .375-.154h6.375c.141 0 .276.056.376.154.1.098.155.232.155.371v.525H2.125Zm0 7.35h7.438v1.05H7.485l-5.36-.963v-.087Zm1.72 4.726c-.231.185-.45.384-.658.594v-.594h.657Zm4.124 7.876a3.24 3.24 0 0 1-1.592-.425 3.193 3.193 0 0 1-1.168-1.15h1.356a2.136 2.136 0 0 0 2.808 0h1.356a3.192 3.192 0 0 1-1.169 1.15 3.24 3.24 0 0 1-1.591.425Zm14.051-3.14a1.595 1.595 0 0 1-1.18.515H2.148a6.358 6.358 0 0 1 1.592-3.701 6.487 6.487 0 0 1 3.513-2.03 2.01 2.01 0 0 1 .418-.045h3.486v-1.05H7.97v-1.05h7.856a1.315 1.315 0 0 1-1.01.753c-.72.102-1.38.457-1.857 1-.514.586-.74 1.318-.74 2.083 0 .711.258 1.4.726 1.94H8.5v1.05h11.027a2.176 2.176 0 0 0 1.503-.616l3.316-3.277c.398-.395.621-.929.623-1.485v-4.074c0-.325.102-.643.293-.909.19-.266.459-.467.77-.576v2.01c0 .745.267 1.465.753 2.033.486.569 1.16.949 1.902 1.074v1.094c-.33 0-.667-.02-.995.023a4.82 4.82 0 0 0-2.683 1.15 4.727 4.727 0 0 0-1.507 2.476l-1.482 1.612Zm6.42-1.06h.027l.642.633a.588.588 0 0 1 .074.744.595.595 0 0 1-.612.25.597.597 0 0 1-.305-.16l-.489-.484.663-.983Zm.247 4.2c-.46-.001-.914-.1-1.332-.291a3.2 3.2 0 0 1-1.09-.814.528.528 0 0 0 .208-.179l.46-.682c.257.37.626.65 1.055.799.428.148.893.156 1.327.024a2.123 2.123 0 0 0 1.083-.76 2.083 2.083 0 0 0 .129-2.297h1.166a3.119 3.119 0 0 1-.403 2.868 3.179 3.179 0 0 1-1.137.98 3.22 3.22 0 0 1-1.465.352Z" fill="#000"/><path d="M4.25 13.682H3.187v3.15H4.25v-3.15Z" fill="#000"/></svg><svg fill="none" viewBox="0 0 10 21" id="icon-facebook" xmlns="http://www.w3.org/2000/svg"><path d="M2.547 20.556v-9.631H0V7.457h2.547V4.495C2.547 2.167 4.05.03 7.517.03 8.922.03 9.96.164 9.96.164l-.082 3.239s-1.058-.01-2.213-.01c-1.25 0-1.45.575-1.45 1.532v2.532h3.763l-.164 3.468h-3.6v9.631H2.547Z" fill="#000"/></svg><svg fill="none" viewBox="0 0 20 20" id="icon-instagram" xmlns="http://www.w3.org/2000/svg"><path d="M9.748 6.528A3.258 3.258 0 0 0 6.496 9.78a3.258 3.258 0 0 0 3.252 3.251 3.258 3.258 0 0 0 3.25-3.251 3.258 3.258 0 0 0-3.25-3.252Zm9.751 3.252c0-1.347.013-2.68-.063-4.025-.076-1.56-.432-2.946-1.573-4.088C16.719.523 15.336.17 13.775.094 12.428.018 11.094.03 9.75.03 8.404.03 7.07.018 5.725.094 4.165.17 2.78.526 1.637 1.667.493 2.811.14 4.194.064 5.755-.01 7.102.001 8.435.001 9.78c0 1.344-.012 2.68.063 4.024.076 1.561.432 2.947 1.573 4.088 1.144 1.144 2.527 1.498 4.088 1.574 1.347.075 2.681.063 4.025.063 1.346 0 2.68.012 4.025-.063 1.56-.076 2.946-.432 4.088-1.574 1.144-1.144 1.497-2.527 1.573-4.088.078-1.344.063-2.678.063-4.024Zm-9.751 5.003A4.996 4.996 0 0 1 4.745 9.78a4.996 4.996 0 0 1 5.003-5.003A4.996 4.996 0 0 1 14.75 9.78a4.996 4.996 0 0 1-5.002 5.003Zm5.207-9.042a1.167 1.167 0 0 1-1.168-1.169c0-.646.522-1.168 1.168-1.168a1.167 1.167 0 0 1 .827 1.995 1.167 1.167 0 0 1-.827.342Z" fill="#000"/></svg><svg fill="none" viewBox="0 0 11 19" id="icon-left" xmlns="http://www.w3.org/2000/svg"><path d="M8.197 18.079.45 10.333a1.548 1.548 0 0 1 0-2.184L8.197.403a1.548 1.548 0 0 1 2.184 2.184L3.735 9.233l6.646 6.662c.601.604.601 1.58 0 2.184a1.548 1.548 0 0 1-2.184 0Z" fill="#000"/></svg><svg fill="none" viewBox="0 0 18 20" id="icon-location" xmlns="http://www.w3.org/2000/svg"><path clip-rule="evenodd" d="M11.5 8.53a2.5 2.5 0 1 0-5 0 2.5 2.5 0 0 0 5 0Z" stroke="#000" stroke-width="1.5" stroke-linecap="round" stroke-linejoin="round"/><path clip-rule="evenodd" d="M9 19.03c-1.199 0-7.5-5.102-7.5-10.437C1.5 4.416 4.857 1.03 9 1.03c4.142 0 7.5 3.386 7.5 7.563 0 5.335-6.302 10.437-7.5 10.437Z" stroke="#000" stroke-width="1.5" stroke-linecap="round" stroke-linejoin="round"/></svg><svg fill="none" viewBox="0 0 22 20" id="icon-message" xmlns="http://www.w3.org/2000/svg"><path d="m16.903 6.881-4.444 3.613c-.84.666-2.02.666-2.86 0L5.12 6.881" stroke="#000" stroke-width="1.5" stroke-linecap="round" stroke-linejoin="round"/><path clip-rule="evenodd" d="M15.909 19.03C18.95 19.038 21 16.54 21 13.468V6.6c0-3.071-2.05-5.57-5.091-5.57H6.09C3.05 1.03 1 3.529 1 6.6v6.868c0 3.071 2.05 5.57 5.091 5.562h9.818Z" stroke="#000" stroke-width="1.5" stroke-linecap="round" stroke-linejoin="round"/></svg><svg fill="none" viewBox="0 0 20 20" id="icon-minus" xmlns="http://www.w3.org/2000/svg"><g clip-path="url(#aua)"><path d="M19.167 9.067H.833A.828.828 0 0 0 0 9.888c0 .454.373.822.833.822h18.334c.46 0 .833-.368.833-.822a.828.828 0 0 0-.833-.821Z" fill="#000"/></g><defs><clipPath id="aua"><path fill="#fff" transform="translate(0 .03)" d="M0 0h20v19.717H0z"/></clipPath></defs></svg><svg fill="none" viewBox="0 0 20 21" id="icon-plus" xmlns="http://www.w3.org/2000/svg"><g clip-path="url(#ava)"><path d="M19 9.03h-8v-8a1 1 0 0 0-2 0v8H1a1 1 0 0 0 0 2h8v8a1 1 0 0 0 2 0v-8h8a1 1 0 0 0 0-2Z" fill="#000"/></g><defs><clipPath id="ava"><path fill="#fff" transform="translate(0 .03)" d="M0 0h20v20H0z"/></clipPath></defs></svg><svg fill="none" viewBox="0 0 24 20" id="icon-quote-close" xmlns="http://www.w3.org/2000/svg"><path d="M18.783 9.595c-1.276.116-2.32.609-3.13 1.478-.812.87-1.218 1.971-1.218 3.305 0 1.449.435 2.637 1.304 3.565.87.87 1.971 1.304 3.305 1.304 1.507 0 2.724-.55 3.652-1.652.87-1.101 1.304-2.812 1.304-5.13C24 8 22.522 4.145 19.565.899c-.58-.58-1.246-.87-2-.87-.638 0-1.188.233-1.652.696-.464.406-.696.899-.696 1.479 0 .637.232 1.188.696 1.652 1.507 1.565 2.464 3.478 2.87 5.739Zm-14.435 0c-1.276.116-2.319.609-3.13 1.478C.405 11.943 0 13.044 0 14.378c0 1.449.435 2.637 1.304 3.565.87.87 1.971 1.304 3.305 1.304 1.507 0 2.724-.55 3.652-1.652.87-1.101 1.304-2.812 1.304-5.13C9.565 8 8.087 4.145 5.13.899c-.58-.58-1.246-.87-2-.87-.637 0-1.188.233-1.652.696-.464.406-.695.899-.695 1.479 0 .637.231 1.188.695 1.652 1.508 1.565 2.464 3.478 2.87 5.739Z" fill="#000"/></svg><svg fill="none" viewBox="0 0 24 20" id="icon-quote-open" xmlns="http://www.w3.org/2000/svg"><path d="M5.217 9.595c1.276.116 2.32.609 3.13 1.478.812.87 1.218 1.971 1.218 3.305 0 1.449-.435 2.637-1.304 3.565-.87.87-1.971 1.304-3.304 1.304-1.508 0-2.725-.55-3.653-1.652C.434 16.494 0 14.783 0 12.465 0 8 1.478 4.145 4.435.899c.58-.58 1.246-.87 2-.87.637 0 1.188.233 1.652.696.464.406.696.899.696 1.479 0 .637-.232 1.188-.696 1.652C6.58 5.42 5.623 7.334 5.217 9.595Zm14.435 0c1.275.116 2.319.609 3.13 1.478.812.87 1.218 1.971 1.218 3.305 0 1.449-.435 2.637-1.304 3.565-.87.87-1.971 1.304-3.305 1.304-1.507 0-2.724-.55-3.652-1.652-.87-1.101-1.304-2.812-1.304-5.13 0-4.464 1.478-8.32 4.435-11.566.58-.58 1.246-.87 2-.87.637 0 1.188.233 1.652.696.463.406.695.899.695 1.479 0 .637-.232 1.188-.695 1.652-1.507 1.565-2.464 3.478-2.87 5.739Z" fill="#000"/></svg><svg fill="none" viewBox="0 0 34 35" id="icon-restorant" xmlns="http://www.w3.org/2000/svg"><path d="M32.406 28.186h-3.718V17.514a2.31 2.31 0 0 0 1.69-3.093l-1.69-4.396V1.624a.531.531 0 0 0-.532-.532H5.844a.531.531 0 0 0-.532.532v8.4l-1.69 4.397a2.31 2.31 0 0 0 1.69 3.093v10.672H1.595a.531.531 0 0 0-.532.531v3.719a.532.532 0 0 0 .532.531h30.812a.532.532 0 0 0 .532-.531v-3.719a.53.53 0 0 0-.532-.531Zm-5.843 0v-11.33c.29.3.658.517 1.062.625v10.705h-1.063Zm-4.25.531v3.188h-2.125v-3.719h1.062a.53.53 0 0 0 .531-.531V26.06a.53.53 0 0 0-.531-.531h-3.188a.531.531 0 0 0-.53.531v1.594a.531.531 0 0 0 .53.531h1.063v3.719H17v-3.188a.53.53 0 0 0-.531-.531h-1.063v-1.594a.529.529 0 0 0-.531-.531h-1.063v-8.548a2.31 2.31 0 0 0 1.313-.792 2.29 2.29 0 0 0 1.781.84h.188a2.288 2.288 0 0 0 1.78-.84c.077.093.161.179.251.259v1.643a2.659 2.659 0 0 0-2.656 2.657.533.533 0 0 0 .531.531h5.313a.529.529 0 0 0 .53-.531 2.659 2.659 0 0 0-2.655-2.657v-1.11c.154.032.311.048.469.048h.166a2.305 2.305 0 0 0 1.802-.865 2.302 2.302 0 0 0 1.805.865h.102c.334 0 .664-.07.968-.21v8.71h-1.063a.53.53 0 0 0-.53.531v1.594h-1.063a.532.532 0 0 0-.532.531Zm-3.72-1.593v-.532h2.126v.532h-2.125ZM8.264 14.922l1.173-4.268h2.156l-.79 4.799a1.243 1.243 0 0 1-1.232 1.044h-.102a1.247 1.247 0 0 1-1.204-1.575ZM8.5 17.35c.304.14.634.21.968.21h.102a2.3 2.3 0 0 0 1.805-.865 2.306 2.306 0 0 0 1.375.825v2.696H8.5v-2.866Zm4.677-.852a1.246 1.246 0 0 1-1.231-1.451l.724-4.393h2.175l-.256 4.664a1.248 1.248 0 0 1-1.246 1.18h-.166Zm4.822-.39a1.237 1.237 0 0 1-.905.39h-.188a1.249 1.249 0 0 1-1.245-1.313l.248-4.531h2.182l.248 4.527v.004a1.233 1.233 0 0 1-.34.923Zm1.412-.79-.256-4.664h2.175l.724 4.393a1.248 1.248 0 0 1-1.231 1.45h-.166a1.248 1.248 0 0 1-1.246-1.179Zm.776 4.367a1.597 1.597 0 0 1 1.503 1.063h-4.068a1.597 1.597 0 0 1 1.503-1.063h1.063Zm5.338-3.679a1.238 1.238 0 0 1-.992.491h-.104a1.243 1.243 0 0 1-1.23-1.044l-.792-4.8h2.157l1.172 4.266v.003a1.24 1.24 0 0 1-.211 1.084Zm-.556 11.116h.531v1.063h-.531v-1.063Zm4.418-12.32a1.248 1.248 0 1 1-2.368.778l-1.354-4.926h2.127l1.595 4.148ZM6.375 2.155h21.25v7.437H6.375V2.155ZM4.749 15.957a1.23 1.23 0 0 1-.136-1.155l1.595-4.147h2.127L6.98 15.582a1.252 1.252 0 0 1-1.785.775 1.23 1.23 0 0 1-.447-.4Zm1.626 1.524a2.304 2.304 0 0 0 1.063-.626v11.331H6.375V17.481Zm4.25 14.424h-8.5v-2.657h8.5v2.657Zm.531-3.719H8.5V21.28h4.25v10.625h-1.063v-3.188a.53.53 0 0 0-.53-.531Zm2.656-1.063h.532v1.594a.53.53 0 0 0 .531.532h1.063v2.656h-2.126v-4.782Zm18.063 4.782h-8.5v-2.657h8.5v2.657Z" fill="#000"/><path d="M20.719 6.405h-.577a3.195 3.195 0 0 0-2.61-2.611v-.577a.531.531 0 1 0-1.063 0v.577a3.195 3.195 0 0 0-2.611 2.61h-.577a.531.531 0 0 0-.531.532 2.127 2.127 0 0 0 2.125 2.125h4.25a2.127 2.127 0 0 0 2.125-2.125.531.531 0 0 0-.531-.531ZM17 4.81a2.129 2.129 0 0 1 2.058 1.594h-4.116A2.129 2.129 0 0 1 17 4.81Zm2.125 3.188h-4.25a1.063 1.063 0 0 1-.92-.532h6.09a1.064 1.064 0 0 1-.92.532ZM13.045 5.253a.532.532 0 0 0 .236-.442V3.217H12.22v1.29a2.339 2.339 0 0 1-.531.195V3.217h-1.063v1.485a2.337 2.337 0 0 1-.531-.194v-1.29H9.03V4.81a.531.531 0 0 0 .237.442c.409.273.872.454 1.357.531v3.277h1.063V5.784a3.406 3.406 0 0 0 1.357-.53ZM22.844 2.686a2.125 2.125 0 0 0-.532 4.183V9.06h1.063V6.869a2.125 2.125 0 0 0-.531-4.183Zm0 3.188a1.063 1.063 0 1 1 0-2.126 1.063 1.063 0 0 1 0 2.126Z" fill="#000"/></svg><svg fill="none" viewBox="0 0 11 19" id="icon-right" xmlns="http://www.w3.org/2000/svg"><path d="m2.803 18.079 7.746-7.746a1.548 1.548 0 0 0 0-2.184L2.803.403A1.548 1.548 0 0 0 .62 2.587l6.646 6.646-6.646 6.662a1.548 1.548 0 0 0 0 2.184c.604.601 1.58.601 2.184 0Z" fill="#000"/></svg><svg fill="none" viewBox="0 0 21 21" id="icon-search" xmlns="http://www.w3.org/2000/svg"><ellipse cx="9.767" cy="9.66" rx="8.989" ry="8.884" stroke="#000" stroke-width="1.5" stroke-linecap="round" stroke-linejoin="round"/><path d="m16.018 16.3 3.524 3.474" stroke="#000" stroke-width="1.5" stroke-linecap="round" stroke-linejoin="round"/></svg><svg fill="none" viewBox="0 0 16 17" id="icon-star" xmlns="http://www.w3.org/2000/svg"><g clip-path="url(#bba)"><path d="M-.237 6.194a.468.468 0 0 1 .377-.319l4.945-.72L7.297.66a.467.467 0 0 1 .838 0l2.212 4.494 4.945.721a.468.468 0 0 1 .26.8l-3.58 3.498.846 4.94a.47.47 0 0 1-.679.494l-4.423-2.332-4.423 2.332a.466.466 0 0 1-.678-.494l.845-4.94-3.58-3.498a.47.47 0 0 1-.117-.48Z" fill="#000"/></g><defs><clipPath id="bba"><path fill="#fff" transform="matrix(-1 0 0 1 16 .03)" d="M0 0h16v16H0z"/></clipPath></defs></svg><svg fill="none" viewBox="0 0 15 15" id="icon-telegram" xmlns="http://www.w3.org/2000/svg"><path d="M9.318 14.33a.694.694 0 0 1-.616-.36l-2.041-3.858a.622.622 0 0 1 .05-.661l3.295-4.221-4.468 3.113a.725.725 0 0 1-.7.047L.757 6.462a.646.646 0 0 1-.379-.618.653.653 0 0 1 .449-.574L13.896.72a.719.719 0 0 1 .723.15c.19.18.252.447.16.685l-4.816 12.35a.684.684 0 0 1-.607.424h-.038Z" fill="#000"/></svg><svg fill="none" viewBox="0 0 20 21" id="icon-time" xmlns="http://www.w3.org/2000/svg"><path d="M10.575 1.57V.61a.611.611 0 0 0-1.222 0v.964C4.55 1.91.744 5.92.744 10.805c0 5.103 4.153 9.255 9.256 9.255 5.103 0 9.256-4.152 9.256-9.255 0-4.91-3.845-8.937-8.681-9.235ZM10 18.837c-4.43 0-8.033-3.603-8.033-8.032 0-4.43 3.603-8.033 8.033-8.033s8.033 3.604 8.033 8.033c0 4.429-3.603 8.032-8.033 8.032Z" fill="#000"/><path d="M6.863 16.352a6.39 6.39 0 0 1-3.234-5.547.305.305 0 1 0-.611 0 7.003 7.003 0 0 0 3.544 6.078.305.305 0 1 0 .3-.531ZM8.53 17.19a6.84 6.84 0 0 1-.353-.102.305.305 0 0 0-.186.582c.127.04.255.077.385.11a.306.306 0 0 0 .153-.59ZM17.885 4.758a.611.611 0 0 0 .863-.866L17.162 2.31a.61.61 0 1 0-.863.865l1.586 1.583ZM10.575 10.691V5.806a.611.611 0 0 0-1.223 0v5.15c0 .168.088.328.21.443l1.789 1.671a.61.61 0 0 0 .657.117.61.61 0 0 0 .164-1.006l-1.597-1.49Z" fill="#000"/></svg><svg fill="none" viewBox="0 0 34 35" id="icon-timer" xmlns="http://www.w3.org/2000/svg"><g clip-path="url(#bea)" fill="#000"><path d="m31.754 12.911.996-.996c.288-.288.447-.67.447-1.078 0-.407-.159-.79-.447-1.078l-1.14-1.14a1.514 1.514 0 0 0-1.078-.447c-.407 0-.79.159-1.078.447l-.996.996a12.7 12.7 0 0 0-4.412-1.934V6.21h.606a1.49 1.49 0 0 0 1.488-1.488v-2.07a1.49 1.49 0 0 0-1.488-1.489H17.8a1.49 1.49 0 0 0-1.488 1.489v2.07c0 .82.668 1.488 1.488 1.488h.606v1.476a12.703 12.703 0 0 0-4.392 1.93l-.996-.996a1.514 1.514 0 0 0-1.078-.447c-.407 0-.79.159-1.078.447l-1.14 1.14a1.526 1.526 0 0 0 0 2.156l.176.177H5.19a.664.664 0 0 0 0 1.328h5.193a12.713 12.713 0 0 0-1.215 2.552H.664a.664.664 0 0 0 0 1.328H8.79a12.748 12.748 0 0 0-.314 2.553H4.25a.664.664 0 0 0 0 1.328h4.265c.072.879.233 1.732.474 2.552H3.32a.664.664 0 0 0 0 1.328h6.142c1.932 4.599 6.482 7.836 11.774 7.836C28.274 32.897 34 27.171 34 20.133c0-2.679-.83-5.167-2.246-7.222Zm-1.36-3.353a.192.192 0 0 1 .138-.058c.037 0 .091.01.139.058l1.14 1.14a.192.192 0 0 1 .058.14c0 .036-.01.09-.058.138l-.873.873c-.435-.509-.91-.983-1.418-1.418l.873-.873ZM17.64 4.72v-2.07a.16.16 0 0 1 .16-.16h6.852a.16.16 0 0 1 .16.16v2.07a.16.16 0 0 1-.16.16H17.8a.16.16 0 0 1-.16-.16Zm2.095 1.488h2.983v1.246a12.835 12.835 0 0 0-2.983.003V6.209ZM10.66 10.7l1.141-1.141a.192.192 0 0 1 .139-.058c.037 0 .091.01.139.058l.873.873c-.51.435-.983.91-1.418 1.418l-.874-.873a.196.196 0 0 1 0-.278Zm10.576 20.87C14.93 31.57 9.8 26.44 9.8 20.133S14.93 8.697 21.236 8.697s11.436 5.13 11.436 11.436-5.13 11.436-11.436 11.436Z"/><path d="m25.619 14.81-3.14 3.14a2.498 2.498 0 0 0-1.243-.33 2.517 2.517 0 0 0-2.514 2.513 2.517 2.517 0 0 0 2.514 2.514 2.516 2.516 0 0 0 2.514-2.514c0-.452-.121-.877-.331-1.244l3.139-3.139a.664.664 0 0 0-.94-.94Zm-4.383 6.509a1.187 1.187 0 0 1-1.186-1.186 1.187 1.187 0 0 1 2.371 0c0 .654-.531 1.186-1.185 1.186ZM21.236 11.523a.669.669 0 0 0 .47-.194.67.67 0 0 0 .194-.47.669.669 0 0 0-.664-.664.67.67 0 0 0-.47.195.668.668 0 0 0 .47 1.133ZM21.236 28.743a.669.669 0 0 0-.47.194.668.668 0 0 0 .47 1.134.666.666 0 0 0 .47-1.134.669.669 0 0 0-.47-.194ZM14.678 12.911a.669.669 0 0 0-.469.195.67.67 0 0 0-.195.47.67.67 0 0 0 .195.47.668.668 0 0 0 .939 0 .67.67 0 0 0 .194-.47.67.67 0 0 0-.194-.47.669.669 0 0 0-.47-.195ZM27.794 26.026a.67.67 0 0 0-.47.195.668.668 0 0 0 0 .939.668.668 0 0 0 1.134-.47.669.669 0 0 0-.664-.664ZM14.678 26.026a.669.669 0 0 0-.664.665.669.669 0 0 0 .665.664.669.669 0 0 0 .663-.664.669.669 0 0 0-.664-.665ZM11.962 19.469a.668.668 0 0 0-.664.664.667.667 0 0 0 .664.664.666.666 0 0 0 .665-.664.67.67 0 0 0-.195-.47.669.669 0 0 0-.47-.194ZM30.98 19.663a.668.668 0 0 0-1.133.47.668.668 0 0 0 .663.664.67.67 0 0 0 .47-.195.67.67 0 0 0 .194-.47.67.67 0 0 0-.195-.469ZM.664 23.733a.669.669 0 0 0-.47.194.67.67 0 0 0-.194.47.67.67 0 0 0 .195.47.67.67 0 0 0 .47.195.669.669 0 0 0 .468-.195.67.67 0 0 0 .195-.47.67.67 0 0 0-.195-.47.668.668 0 0 0-.469-.194Z"/><path d="M30.314 18.117a.664.664 0 0 0 .447-.826 9.963 9.963 0 0 0-6.704-6.69.664.664 0 1 0-.376 1.274 8.576 8.576 0 0 1 5.807 5.795.664.664 0 0 0 .826.447Z"/></g><defs><clipPath id="bea"><path fill="#fff" transform="translate(0 .03)" d="M0 0h34v34H0z"/></clipPath></defs></svg><svg fill="none" viewBox="0 0 21 17" id="icon-twitter" xmlns="http://www.w3.org/2000/svg"><path d="M20.526 2.01a8.435 8.435 0 0 1-2.422.652 4.196 4.196 0 0 0 1.85-2.319 8.304 8.304 0 0 1-2.67 1.016A4.196 4.196 0 0 0 14.212.03a4.205 4.205 0 0 0-4.206 4.21c0 .325.04.65.104.964A11.954 11.954 0 0 1 1.436.799a4.177 4.177 0 0 0-.573 2.124c0 1.46.743 2.748 1.875 3.506a4.243 4.243 0 0 1-1.902-.536v.052a4.207 4.207 0 0 0 3.372 4.13 4.451 4.451 0 0 1-1.107.143c-.274 0-.533-.027-.795-.064a4.214 4.214 0 0 0 3.933 2.918 8.43 8.43 0 0 1-5.223 1.798c-.352 0-.678-.012-1.016-.052a11.911 11.911 0 0 0 6.46 1.887c7.737 0 11.97-6.408 11.97-11.971 0-.183 0-.365-.013-.548a9.06 9.06 0 0 0 2.11-2.175Z" fill="#000"/></svg><svg fill="none" viewBox="0 0 15 15" id="telegram" xmlns="http://www.w3.org/2000/svg"><path d="M9.318 14.3a.694.694 0 0 1-.616-.36l-2.041-3.858a.622.622 0 0 1 .05-.66L10.005 5.2 5.538 8.314a.725.725 0 0 1-.7.046L.757 6.432a.646.646 0 0 1-.379-.618.653.653 0 0 1 .449-.574L13.895.69a.719.719 0 0 1 .724.15c.19.18.252.447.16.685l-4.816 12.35a.684.684 0 0 1-.607.424l-.038.001Z" fill="#fff"/></svg></svg>