<svg width="14" height="13" viewBox="0 0 14 13" fill="none" xmlns="http://www.w3.org/2000/svg">
<path d="M8.121 0.322816C7.93353 0.510344 7.82821 0.764652 7.82821 1.02982C7.82821 1.29498 7.93353 1.54929 8.121 1.73682L11.413 5.02982L1 5.03682C0.734784 5.03682 0.48043 5.14217 0.292893 5.32971C0.105357 5.51725 0 5.7716 0 6.03682C0 6.30203 0.105357 6.55639 0.292893 6.74392C0.48043 6.93146 0.734784 7.03682 1 7.03682L11.414 7.02982L8.121 10.3228C8.02549 10.4151 7.94931 10.5254 7.8969 10.6474C7.84449 10.7694 7.8169 10.9006 7.81575 11.0334C7.8146 11.1662 7.8399 11.2979 7.89018 11.4208C7.94046 11.5437 8.01471 11.6553 8.10861 11.7492C8.2025 11.8431 8.31415 11.9174 8.43705 11.9676C8.55994 12.0179 8.69162 12.0432 8.8244 12.0421C8.95718 12.0409 9.0884 12.0133 9.2104 11.9609C9.33241 11.9085 9.44275 11.8323 9.535 11.7368L13.121 8.15182C13.3996 7.87323 13.6207 7.54249 13.7715 7.17848C13.9222 6.81447 13.9999 6.42432 13.9999 6.03032C13.9999 5.63631 13.9222 5.24616 13.7715 4.88215C13.6207 4.51814 13.3996 4.1874 13.121 3.90882L9.535 0.322816C9.34747 0.135345 9.09316 0.0300293 8.828 0.0300293C8.56284 0.0300293 8.30853 0.135345 8.121 0.322816V0.322816Z" fill="black"/>
</svg>
